<mxfile host="app.diagrams.net" agent="Mozilla/5.0 (Macintosh; Intel Mac OS X 10_15_7) AppleWebKit/537.36 (KHTML, like Gecko) Chrome/126.0.0.0 Safari/537.36" version="24.7.7">
  <diagram name="第 1 页" id="KAplGwQBWatuX8OMjMGr">
    <mxGraphModel dx="2420" dy="771" grid="1" gridSize="10" guides="1" tooltips="1" connect="1" arrows="1" fold="1" page="1" pageScale="1" pageWidth="827" pageHeight="1169" math="0" shadow="0">
      <root>
        <mxCell id="0" />
        <mxCell id="1" parent="0" />
        <mxCell id="jeApIvImyh64UdOUttwd-78" value="" style="rounded=1;whiteSpace=wrap;html=1;fillColor=#d5e8d4;strokeColor=#82b366;" parent="1" vertex="1">
          <mxGeometry x="-34.57" y="354" width="704.57" height="566" as="geometry" />
        </mxCell>
        <mxCell id="jeApIvImyh64UdOUttwd-66" style="edgeStyle=orthogonalEdgeStyle;rounded=1;orthogonalLoop=1;jettySize=auto;html=1;sketch=1;curveFitting=1;jiggle=2;shadow=1;" parent="1" edge="1">
          <mxGeometry relative="1" as="geometry">
            <mxPoint x="477" y="513" as="targetPoint" />
            <mxPoint x="447" y="513" as="sourcePoint" />
          </mxGeometry>
        </mxCell>
        <mxCell id="jeApIvImyh64UdOUttwd-61" value="" style="rounded=1;whiteSpace=wrap;html=1;strokeWidth=2;fillWeight=4;hachureGap=8;hachureAngle=45;sketch=1;arcSize=10;" parent="1" vertex="1">
          <mxGeometry x="365" y="414" width="70" height="190" as="geometry" />
        </mxCell>
        <mxCell id="jeApIvImyh64UdOUttwd-60" value="" style="rounded=1;whiteSpace=wrap;html=1;strokeWidth=2;fillWeight=4;hachureGap=8;hachureAngle=45;sketch=1;arcSize=10;" parent="1" vertex="1">
          <mxGeometry x="40" y="410" width="130" height="200" as="geometry" />
        </mxCell>
        <mxCell id="jeApIvImyh64UdOUttwd-54" value="" style="rounded=1;whiteSpace=wrap;html=1;strokeWidth=2;fillWeight=4;hachureGap=8;hachureAngle=45;sketch=1;" parent="1" vertex="1">
          <mxGeometry x="39.99999999999997" y="671" width="325" height="150" as="geometry" />
        </mxCell>
        <mxCell id="jeApIvImyh64UdOUttwd-24" value="" style="shape=table;startSize=0;container=1;collapsible=0;childLayout=tableLayout;swimlaneFillColor=none;rounded=0;sketch=1;curveFitting=1;jiggle=2;shadow=1;" parent="1" vertex="1">
          <mxGeometry x="420" y="646" width="165" height="190" as="geometry" />
        </mxCell>
        <mxCell id="jeApIvImyh64UdOUttwd-25" value="" style="shape=tableRow;horizontal=0;startSize=0;swimlaneHead=0;swimlaneBody=0;strokeColor=inherit;top=0;left=0;bottom=0;right=0;collapsible=0;dropTarget=0;fillColor=none;points=[[0,0.5],[1,0.5]];portConstraint=eastwest;" parent="jeApIvImyh64UdOUttwd-24" vertex="1">
          <mxGeometry width="165" height="48" as="geometry" />
        </mxCell>
        <mxCell id="jeApIvImyh64UdOUttwd-26" value="" style="shape=partialRectangle;html=1;whiteSpace=wrap;connectable=0;strokeColor=inherit;overflow=hidden;fillColor=none;top=0;left=0;bottom=0;right=0;pointerEvents=1;" parent="jeApIvImyh64UdOUttwd-25" vertex="1">
          <mxGeometry width="75" height="48" as="geometry">
            <mxRectangle width="75" height="48" as="alternateBounds" />
          </mxGeometry>
        </mxCell>
        <mxCell id="jeApIvImyh64UdOUttwd-27" value="" style="shape=partialRectangle;html=1;whiteSpace=wrap;connectable=0;strokeColor=inherit;overflow=hidden;fillColor=none;top=0;left=0;bottom=0;right=0;pointerEvents=1;" parent="jeApIvImyh64UdOUttwd-25" vertex="1">
          <mxGeometry x="75" width="90" height="48" as="geometry">
            <mxRectangle width="90" height="48" as="alternateBounds" />
          </mxGeometry>
        </mxCell>
        <mxCell id="jeApIvImyh64UdOUttwd-28" value="" style="shape=tableRow;horizontal=0;startSize=0;swimlaneHead=0;swimlaneBody=0;strokeColor=inherit;top=0;left=0;bottom=0;right=0;collapsible=0;dropTarget=0;fillColor=none;points=[[0,0.5],[1,0.5]];portConstraint=eastwest;" parent="jeApIvImyh64UdOUttwd-24" vertex="1">
          <mxGeometry y="48" width="165" height="47" as="geometry" />
        </mxCell>
        <mxCell id="jeApIvImyh64UdOUttwd-29" value="" style="shape=partialRectangle;html=1;whiteSpace=wrap;connectable=0;strokeColor=inherit;overflow=hidden;fillColor=none;top=0;left=0;bottom=0;right=0;pointerEvents=1;" parent="jeApIvImyh64UdOUttwd-28" vertex="1">
          <mxGeometry width="75" height="47" as="geometry">
            <mxRectangle width="75" height="47" as="alternateBounds" />
          </mxGeometry>
        </mxCell>
        <mxCell id="jeApIvImyh64UdOUttwd-30" value="" style="shape=partialRectangle;html=1;whiteSpace=wrap;connectable=0;strokeColor=inherit;overflow=hidden;fillColor=none;top=0;left=0;bottom=0;right=0;pointerEvents=1;shadow=0;" parent="jeApIvImyh64UdOUttwd-28" vertex="1">
          <mxGeometry x="75" width="90" height="47" as="geometry">
            <mxRectangle width="90" height="47" as="alternateBounds" />
          </mxGeometry>
        </mxCell>
        <mxCell id="jeApIvImyh64UdOUttwd-31" value="" style="shape=tableRow;horizontal=0;startSize=0;swimlaneHead=0;swimlaneBody=0;strokeColor=inherit;top=0;left=0;bottom=0;right=0;collapsible=0;dropTarget=0;fillColor=none;points=[[0,0.5],[1,0.5]];portConstraint=eastwest;" parent="jeApIvImyh64UdOUttwd-24" vertex="1">
          <mxGeometry y="95" width="165" height="48" as="geometry" />
        </mxCell>
        <mxCell id="jeApIvImyh64UdOUttwd-32" value="" style="shape=partialRectangle;html=1;whiteSpace=wrap;connectable=0;strokeColor=inherit;overflow=hidden;fillColor=none;top=0;left=0;bottom=0;right=0;pointerEvents=1;" parent="jeApIvImyh64UdOUttwd-31" vertex="1">
          <mxGeometry width="75" height="48" as="geometry">
            <mxRectangle width="75" height="48" as="alternateBounds" />
          </mxGeometry>
        </mxCell>
        <mxCell id="jeApIvImyh64UdOUttwd-33" value="" style="shape=partialRectangle;html=1;whiteSpace=wrap;connectable=0;strokeColor=inherit;overflow=hidden;fillColor=none;top=0;left=0;bottom=0;right=0;pointerEvents=1;" parent="jeApIvImyh64UdOUttwd-31" vertex="1">
          <mxGeometry x="75" width="90" height="48" as="geometry">
            <mxRectangle width="90" height="48" as="alternateBounds" />
          </mxGeometry>
        </mxCell>
        <mxCell id="jeApIvImyh64UdOUttwd-34" value="" style="shape=tableRow;horizontal=0;startSize=0;swimlaneHead=0;swimlaneBody=0;strokeColor=inherit;top=0;left=0;bottom=0;right=0;collapsible=0;dropTarget=0;fillColor=none;points=[[0,0.5],[1,0.5]];portConstraint=eastwest;" parent="jeApIvImyh64UdOUttwd-24" vertex="1">
          <mxGeometry y="143" width="165" height="47" as="geometry" />
        </mxCell>
        <mxCell id="jeApIvImyh64UdOUttwd-35" value="" style="shape=partialRectangle;html=1;whiteSpace=wrap;connectable=0;strokeColor=inherit;overflow=hidden;fillColor=none;top=0;left=0;bottom=0;right=0;pointerEvents=1;" parent="jeApIvImyh64UdOUttwd-34" vertex="1">
          <mxGeometry width="75" height="47" as="geometry">
            <mxRectangle width="75" height="47" as="alternateBounds" />
          </mxGeometry>
        </mxCell>
        <mxCell id="jeApIvImyh64UdOUttwd-36" value="" style="shape=partialRectangle;html=1;whiteSpace=wrap;connectable=0;strokeColor=inherit;overflow=hidden;fillColor=none;top=0;left=0;bottom=0;right=0;pointerEvents=1;" parent="jeApIvImyh64UdOUttwd-34" vertex="1">
          <mxGeometry x="75" width="90" height="47" as="geometry">
            <mxRectangle width="90" height="47" as="alternateBounds" />
          </mxGeometry>
        </mxCell>
        <mxCell id="jeApIvImyh64UdOUttwd-79" style="edgeStyle=orthogonalEdgeStyle;rounded=0;orthogonalLoop=1;jettySize=auto;html=1;sketch=1;curveFitting=1;jiggle=2;shadow=1;" parent="1" edge="1">
          <mxGeometry relative="1" as="geometry">
            <mxPoint x="357.32" y="508.94" as="targetPoint" />
            <mxPoint x="327.32" y="508.44" as="sourcePoint" />
          </mxGeometry>
        </mxCell>
        <mxCell id="jeApIvImyh64UdOUttwd-8" value="" style="shape=image;verticalLabelPosition=bottom;labelBackgroundColor=default;verticalAlign=top;aspect=fixed;imageAspect=0;image=data:image/png,iVBORw0KGgoAAAANSUhEUgAAAMgAAADICAYAAACtWK6eAAAAAXNSR0IArs4c6QAAFSJJREFUeF7tnVuIXtUVx9f5khljaqI2Ru3YaLRqUUFFEihWMENBTSlVUJA+FPHFEmVGBaFvmvhW8CEZiemb2DwUqX0QWrSCzASqSBWbCApeMMFoGhNjzGVymcTvlDXjnjnz5Zy9195nr3OZ738gzEy+ffblv9dvr7X2uXwJ4YACUKBQgQTa1K/AE09sW2d60e1213U6nQn+e/PmDdM/cdSnAACpQXsG4vvv02e46SShWTjyupKmNJEk6Q6GBsBUP1kApELNDRguKOxdSjeNjT22scJu93VTAKSC6Y8DRraj6SZ4lAomjj18Nc30byujo1s3EiXT4VT8A94kvqbzawQgigrrwmE6DkgUpxAeREvcauAAJFrzZ+qFB1FQ2BeOq68emu3F6tVDtGfPPtq9e59nz+BJPAUTFQcgIpnkhXzgYDDWrVtLWUCyLTEke/Z8RePj74k60Okkw9gKFkklLgRAxFLJCo6OvpC6Sg4Pr6Hh4bWuYvM+Hx9/1wkKXzN5/vlHh70qRmGrAgAkooFIvEcIHKaLEkiIEGpFnFIk6THFdHmPMnD4QDI29igWvkgTCyEjCenyHjHgkEKCXCTSpOJCYTwhXYA8++yGeI0R0Ysvvlq404VcJJ7U8CCRtLSFVzG9h+ku73AxJEUHwqw4EwtAIuhYtfcwXX766W2FvUeYFWFiEWLFEdEGiIb3ML22hVnYzYozt/AgEXSsCxD7ti+2eyNMLbZ5Y4g4MvLCeNEzHpoexJaHIFGPMbO43T2KijZAHn743sJbSco2DkDKKug+HyGWWyNniboAQYjlnJrSBQBIaQmJkINEELGhVQCQCBNjA4Tv1OUwS+PALpaGqvPrBCARNOZnzrvddLyoKq08BNdBIkyeowoAEknjqq+ku+7sxZX0OBMLQOLoSLZEnZuI7UVs3gMXCSNNKq6kxxPSFWbFzEXsuQePCRcJY80sPEgsJYmcXiTGRUNXaAU4Ik4oPEhcMV1ehFsrA4nbc8B7xJ1RXEmPrafTi5gGfUBx3do+NwiEVrEnFCFWbEUFoVa2SQZl9eor5t2OYl75MzHx7nRR6SuAsHMVfzIBSHxNSRJqxW4Wz3/EVnSmPgCio2vFkCC0UppGAKIlLNdbhSeB59CcQXgQXXV/qN11ETGkE3jeI0Q1/3MQYvlrFnSG67l1aaUMxqJFySa8YlSqWLlyAKScft5nMyhpmtzp+y1T5qvY8O1S3pKXOgGAlJKv3MlzsKS3EiUX5dXW6dCTRMlOeIxyWoeeDUBClYt4ni1HQRIeUeiAqgBIgGixTwEgsRWNVx8AiadlcE0AJFg69RMBiLrE7gYAiFujukoAkLqUz7QLQBowCQVdACANmBsA0oBJACDNnQQA0ty5gQdpwNwAkAZMAjxIcycBgDR3buBBGjA3AKQBk7AQPAjfPm7G0e12Z39vrrzSniUPEdHqgtIvEaV7pDU1tVyn05ngvrXtlplGe5CZ5ym665Kkc2eapgsIiKaacZX9SjcxNE0HpnGAMBRpSs/wVAGKKg22zrbSTdx6E+9UbgwgBgxAUaeh1t1280BpBCCPP75tHGDUbZxNar85z9jXCkisp+yaNLXoS0wF6gelNkAAR0xDWsh11QtJLYCEhlTXXjs0awnXXXfFQraKBTe2Tz/9ij77bF/QuJIkmUgSquU5/EoBCUnEDRTr16+lLCBBSuOkRijw+uvvURgw1XuTSgGxfclM78wxDICiEfas2gmG5bXXZl6xKjmqfgS5MkCkYRXAkJjJwivjA0qVkFQCiDQhZ49xzz1rFt7sY0QiBaSQcE6yZcuGYVGlJQupAyKFY2TkXuQYJSez7acfO3aSPv54L73xxvv09deHHcOpJh9RBUQCB4dUDAcOKMAKfPzxl3Ts2An64IPdtGvX57VDUisgWnCcPn1mVlj+/dSpKVhfwxRYsmTwnB6dd94AHTp0lPbtOzT9mcSTaH8nihogEu8RM6xiEI4cmZwWNgtIw+wC3XEocPjwMZqaOjtbyg2JbqilCMgLqU2LWAn50aMnZsGA9bVfgcnJU3T8+MnZgXAuwpDYDs1dLRVAXN4jBhwAo/0w5I2gFxAu44JEc1dLCRC799iyZUPw7JpQCmFUsISNPpHDKw6zeg9XqKWVi0QHxPWtSmW8B7xGo207SueKAHF5Ea0wKzogrvAq1HsAjij214pKiq6B2LyIVpilAEhxeBXqPQ4c+A47U60w7TidLALE5UU0wqxKAQnZ1oXniGN0barFdhV9+/Y3C4eiEWZFBSR2eBUbjr17D5L5Z1Tmv7PHqlUrp//M/jS/t8nIJH3lsb/99kezRXu16NWB/7799hslVZcqYwOk6jCrMkB8w6tYcBgjyJt8n1k0hlGFgfj0y6es0YChKKMHLxj8T0sLGyC2MEsjD4kKiO2Wdl9AykwgGw0bQXZ19DEkV1k2DC3jcLUd8nmsRSKvbY2Foy8B8ck/yngPNoaXX94RYkfe5zQdFE0wesWKqYXrTl5bHhI7UY/qQWxPDEoBCYWjSmPozVnYOJqWp2h6UNtKEgOUvgREev0jBJC6jCFrKDEMw9uFFZzAHrRsiFqmL7xYPPjgncFVuACxJeqxd7Iq8yASQPj2Eb7m4XM0AQ7T37ohqTK8lMwRQxLiWQFIgbq+3iNkpVxy+UpafsvcViX/nT1O7Z/Z9j29/yCd/vogmb8lBmG2QetI4EMXCokerAUfR3bNbQlr6gFACtT1CQt84DBG0AuDdJKP7PzIyzjKhhjSfplyvnCU0YMXDAbGBxZfTwJASgIiNYgyhpDXRR9Qqgq3fMKqOvXwgQSA5FifNLySwnHhLTfShbfqXPWVglIFJBJPGhuM7PRJtfDxqgAkEJAmwGG6LjUMn5VTI7RiOC69O3xHSdqnA//a4czXpJAAkBzVJXfsPvfcK9b50lwpQ0MuqVFIDdEn79D0oqF6SLwqAAkAROI9eKWUJuKdwYHpXpif2S51p84Q/5McnLTy6mk7NLyIa7HwgcOmBY/LRw+JZ33qqQesegGQHHlcO1hlDYKNYObfYC4URTN29vjMm1LOHj9ROKkxjEICo9R7SMIq1mLxBT+KrgX30RVuubwIAPEExOU9bKtliCHYYCkCxQWJyyh8AHEtFlc+lL9CV6UFj+WLl+zhsM2rAhBPQGwGYYNj8McXea2QUiNlr5IHimvldIUWkvZDF4vFFyyd9hixjyItXKGnLTcDIB6AhBgEr5QMh+aRZxguo4iRi9gWi7zQKqbXKNKTcxTWozdvC10wAIgHILZ9/jzvkV0pz+sQne7KMBlIiM5YX3WXX8/Ut9/NMwybUZTd0XJdFOzVQ8trSEPQ0AUDgHgA4hNe9RrE8kVEty3j71t3Q/LRCaKDso2rcyrLQuIyijJhls2b9nqPquEwovR61pAFA4AIAXGFV9lkNM8gDCBuPIg+nAwHhOvPQmJLUMuEWdLFIk+Lq5YQnRUsFDyWQ2eITgk9b562WUhsC0aRRwUgEQDJhhNFq2WVgHD8zZC4tjlDwyxXeGUWi6L862dLiFYtkSwVRDu+IxKyVFihWTBcHjVvwQAgQkAkK6YtIa8SEB6SgSRk1XSZrhSQogulVQMiXTAAyA8z73pgKu9CoQ0Qs2LarpxXDYgJtU58sa/w6nqoB7GFm8ab2vKOqgHJLhi2PCTv+hA8SAQPwoC4EtE6ADErpy0PCUnUJYDYFos6ADELxuH/7Cp8fgSABHoQW0hhdmxc913VAQgPl5PUz7f+pTBq0gBkxR1rrBcC6wKEF4yjH33q5VHhQQQexAXI0P3rnVeG6wKEh8cepOhx3ZCdLNv1oMt/8ytaftP11jSmLkC4U0c//IT2/yP/laF5IScAKQnI+UOX0hUP/tZ5G0mdgOzd/nc6ue9ArtHGBuQn991Ny35+TWMBmfz8C/rqb//M7R8AUQixGJBVv7/ftfFDdQLyyZ+2RQ2xbB7kp7+7l5ZeOdRYQL7Z8Q59+85/c/uHHCQQED7Ntot1/R/d31J1yQDRRYudHE0X4FtS9p6WlZWUig2ILUlf8cs1tOKOtY0F5NC/36VDb70HQGxvVoy9zSsBRGLIGmV4m/fLv74a1YMAkDk5+/LFcb7XQSRhhYbx85v2XFeZbStm6HUQ26YFh1esh+24cLH8xs3v07AbN4va58WCF428AyFWiRCrbNxdFpCVg0SdTCWdhOjAFBEbkO3wDSkk/XRdSW+yR7WFm7iSrgSIZNWUGJ6tzIoBomWL5pfgPMUFiM0gyjxZaMvJND3qomT+QmEU4Zsfy3hTrifvmhC2eXOsMi/Ecq2amkbBXQwBRCP/MHLZPKr2gsF3A2df5MzPznwl2NQI8aYARAgIF7MZhWT3powXCQFEI/8wY6hzwbjyPCIOMc3Bu37/m3KrG+JNAUgkQLgaTS9y6SDR0mwSQjNbwUUhlst7lAmvjGS2MEvTi4QAYlssisIr/n8A4gGIa9XUNIq89ZFX0W5B4O0yiJAr6L19cL1qVGvBCAEkxHsAkAKvbHsvVl1G4Q4g5kq44IjhPbi1uhaMlQPzPedi3tGzPKJcRg94EA8PUqdRSAFxhVa2cELaRraca8HQzs1cfS4DBzxIgAdxJev8edWhVnYYtgthXC6W95Am61yuLkhccHDfXKFm4z3IyMjWBxYt6nzjWil6P+920/Gic0JuNcnW5Qot6jIKFxyxvYfRxOVF6tBD4kkli0U5QOhJomSnj+1u3rxhoqh87ncUjoxs/UOSJH/2acRVtiwgXL/rLSdVehI2hm/ferfwFgqjh8QgXNrlfS5ZMKqEROI5pItFGUB8tUxTmnj++UeHFwQgklDLDFRrN4frl6yUGqFV7yQ2BRIpHNLFAoDk4Op6u3v2FEl4obF6Sr0Gtx16U6LvCijxqqbO2HmJjx5SOLivAKQkINKVM6ZhSFdJ02bIc+e+cJjyvpBMLx6O50dsffEBI8STApCSgEjzkd5meAWVGoe5PVuSZ/S249qlCQXBdp4PJNmFw0cP1sKEmNIx+HgOUycAiQAIV+HrSXqbNY+pnr9qiE7unXteoejZBZdRcFjFBsE/6zhCIMn2k/VgLfiIoUcIHK0IsUZHtz5DlNwTMMm/KDonxi5WUd3SnCRgPOJTqso5XB0qC4mrfunnoXBEAGRnmtLMO2AFR5KkO8bGHttYVDR3m1dQb26R2I/c+vSjTsMoYww+Y5SWLetZpe3klYvhRcuEWJ1OMmy7ruE7tgUDCA+cIcn+9BXDt3wMY/Bt06d81YtGrIUCgOTMss82r8tItA2j6WD06qOtRywwTL8BiDIgpvrYHqVtYOSBwgtRjMXIbERobEoAkIoAyTYTAoumEbi8oPbnrIcvLGaB4L5p7tQBkBoAyTM4s5Kan2bSNSdf2/BD6y/SQhuGvP4CkIYAEmpMOE9XAQACQHQtrOW1AxAA0nIT1u0+AAEguhbW8toBCABpuQnrdh+AABBdC2t57QAEgLTchHW7D0AAiK6Ftbx2AAJAWm7Cut0HIABE18JaXjsAASAtN2Hd7gMQAKJrYS2vHYAAkJabsG73AQgA0bWwltcOQABIy01Yt/sABIDoWljLawcgAKTlJqzbfQACQHQtrOW1AxAA0nIT1u0+AAEguhbW8toBCABpuQnrdh+AABBdC2t57QAEgLTchHW7D0AAiK6Ftbx2ANIyQMxbGfPsjl+9WfbQrF+z7rLjLjofgLQMkOeee6XQFmJ81Zrt+03KfluVdt81IAEgAGSeAgBkvkEAEAACQCyuB4AAEAACQOYroPkdhRpxcLZO7TgeIdac2lNTZ+nw4WPWKX3jjfcLv0sdX8GmTUNO/QCkOtEBSIHWMb71SGsaAYiWsufWOzl5io4fPwkP0qsAADmYaxT9ts0LQOBBzlEAOcicJAAEgACQEjtYfCqS9OpCXlFLyEFEMpUuJPEeAKS0zPErACDxNc2rEYBYdEaSjiTddQXdmA9CrGoWLHEr8CBiqYILSr0HQqxgifVOBCB62pqapd4DgOjPhXcLAMRbMq8TfLwHV7x9+5uF9bf2VpORkXvp2muHCgeGHKR/cxAf7+ECZGzs0cSLTkfhqJU9/vi28TRN1+W1CUCKZ6KfLxT6eg8AEhP/SHUhxIokZE81IXCwt+FdrKKjtR6Ewyv2IkVHk0MsXuGLDr5XquzBz40XjZ+feV+1amVwE9p9D+1YCBzc1gcf7KZduz7PbTZJkoktWzYMh/Yp77yoIdYTT2xb1+2m43kNtRmQmIKjLqJQOFyAEKWbxsYe2xhT48oA4U7b8pAme5CYgvd7XWXgcOUfjQeEB2BL1B955Nd0001X5doIAFn46JSFwxZesXqx8w+uM6oHcQHCsTRDsnz50nOsAYAsXED4KcHJyZPEP8scdkDih1cqgNjyEG6Qk87169eeA8mBA9/R6dNnyuiHcxuoQFmvYYbk8h4a4ZUKIC4vwp+Pjt5HZ86cpaGhFbOgHD16go4cmWzgFKNLIQrEAkMKiEZ4pQbI6OjWjUTJM0XCrllzPd1ww6rpjy+44Hy65JLltGzZUmIvgqO9CsQKpXoVqMt7qAEi8SJ33XUbXXbZxbNaDA4unv59cHBg9v8GBmb+D0czFeAogI+pqTOl84uiEbouDPJ5Wt5DFRBXLsKN90LSTDNAr+pUwPbsx0y/dJJzM+bou1hZMW1bvlyOPQhDggMK5CngDq10vYeqB+HKJV4EkACOUDi0vYc6INyAK2E34iDcAihGAXdYpR9aVRJimUZcoZYpd8st19DNN18NS+lTBSQJ+fSqrnBTYpHkqjmITz6SheSyyy6at8PVp/bSN8NmMHbt2l34QupeITR3rXrbqgwQST6S7Ry8SX/wIUnEs0rEfqTWpXJlgEiT9t4OcxJ/+eUXE7yKayrb8bl5vNbHY5iRVQ1HJUl63rRJc5K8cw0w7TAH9JIV2L//8KwQvs+fm5wjSWjT5s0bJqpWtFIPkh2cdHerakHQXrMUqDIhzxt5bYBwZwBJs4yxeb3RvUouGW+tgJgOAhTJVPVPGfYadYVUte1iSaYXoEhUWrhlmgSGUbkRHuTc3GQ6NSu8XX7hmkh/jqyJYDQWkKyJzFw76a4DLAsLHAZiZneqnp0pHzUb50FsnWdg+PMZaGaOJOmUfzGVj2Io66VAmnZ3dDqd2e3ZOrZqvTrcU7hVgJQZKM6FAiEKAJAQ1XBO3ygAQPpmqjHQEAUASIhqOKdvFPg/NL841++ytNcAAAAASUVORK5CYII=;" parent="1" vertex="1">
          <mxGeometry x="220" y="450" width="98.5" height="98.5" as="geometry" />
        </mxCell>
        <mxCell id="jeApIvImyh64UdOUttwd-13" style="edgeStyle=orthogonalEdgeStyle;rounded=0;orthogonalLoop=1;jettySize=auto;html=1;exitX=0.5;exitY=0;exitDx=0;exitDy=0;entryX=0.5;entryY=0.667;entryDx=0;entryDy=0;entryPerimeter=0;" parent="1" edge="1">
          <mxGeometry relative="1" as="geometry">
            <mxPoint x="120" y="480" as="sourcePoint" />
            <mxPoint x="120" y="480.01" as="targetPoint" />
          </mxGeometry>
        </mxCell>
        <mxCell id="jeApIvImyh64UdOUttwd-67" style="edgeStyle=orthogonalEdgeStyle;rounded=1;orthogonalLoop=1;jettySize=auto;html=1;shadow=1;sketch=1;curveFitting=1;jiggle=2;" parent="1" edge="1">
          <mxGeometry relative="1" as="geometry">
            <mxPoint x="520" y="598" as="targetPoint" />
            <mxPoint x="520.0000000000001" y="572" as="sourcePoint" />
          </mxGeometry>
        </mxCell>
        <mxCell id="jeApIvImyh64UdOUttwd-23" value="" style="shape=image;verticalLabelPosition=bottom;labelBackgroundColor=default;verticalAlign=top;aspect=fixed;imageAspect=0;image=data:image/png,iVBORw0KGgoAAAANSUhEUgAAANUAAADICAYAAAB/CKTGAAAAAXNSR0IArs4c6QAADKhJREFUeF7tnf193DYMhiWPkXYVN/E+zgxOZkj2Sdyu0mQMqz8q1lV3OesAEhQB6vF/bSgKfF88hEh93Dgc7O/PL/98mMbh6cfj/cPBhs5wd1Jg3Ok8Lk6TgHoZp28pmHEYvwOWC1u6C+IwUK2BWlwErO7y2cWADgHVNaAAy0X+dRlE91BtAQVYXeZ080F1DZUEKMBqnoPdBdA1VO++/j1pHGONpVGLtm8p0DVUf3z959s0TB809gOWRi3aXlOga6g0l39rcQALWEoU6BqqJAxglaQHx+Yo0D1UgJWTFhxTosAhoAKskhThWK0Ch4EKsLSpQftcBQ4FFWDlpgnHaRQ4HFSApUkP2uYocEioACsnVThGqsBhoQIsaYrQTqvAoaECLG260F6iwOGhAixJmtBGowBQvarFkxeatKHtlgJAtVIHsPaFZfleyHLW9cPP6fnL9P+n6eX5brj7/u/H+/m/I/wB1YVLgFU3bReQtG8PzFFN0+efH99/qhthee9AdUVDwCpPrMseimC67Mw5XED1Rv4Alh1Y7748fxrG8cmux1893U3jg8fLQqDacBqwyjGoBdQpModVyz1UKbGTgC/Di+oN3vJ0eO0hd4Z1aLaZJsKOqgN12uHwtdZyA9VcFYaXD+N4935ekypfgxf6vG+zA4O1G1AOwWoKlenidV9c5Gc7IFi7A/Xqhpc11u5QHQKkYLtV8hlC1lL7FStZr7dbefm2yC5QrW/ydXFZd9vf31scpGK1qlKL4B6qVXWoWouck/+1jvFgeK2xLf22qlLL+T1Uq2pQHfIybytjD1CpvEygrScvc6iA6QpZBwAqjTrn46U1KmframUKlZeZqoZR2X0eBKikT+tLv7VHPx//Ms1tjf9mJ/YyS2kGX73tkYCq9ChSrkctLwGLocp9lEcq1voVAOkxlu3SzeisHcsDATVXKaA6pV0RVNZAJYCW92dShK0flsxOlIMBBVTn03g2VNkJd6WMJJjGafjcGqJ1aNnjOyBQHqFquVmRBVV2wq2y1iNIp3stuZcyBwXK087f2ZzdyA81VKVAeYapaMZtZKDl+rGkL5cbVY08UUFVCpT316Gzx9fIvBIIrI8Fqv8VFUNVsinR8vpWmjwAJVXqejugyoAq98Zey/sF0jQBKKlSb7cDKiVUOUnnfe3EpkQ5SOsegEoBVS5QPx7vH2xts+8tZ2xzFKyhfjMDqIRQ5SRdhPUTu3z2ExRQSaH6+vekkj/IDJ4zWVChtjMBqARQaROPCqWafrprDFQSqJRVquWj9tIM1U4Up36DVGCpDjXaAdUNqNTJFyDp1GNaNAowthqQaPsEqltQaapUgKQDKC0i+vZAtQGVKgEBSp99nR4BVFtQKapUiHWUYjysofKJB6o3oKJKcWM3FyugegsqxazuvUplPQAc4HI2N+lrHwdUV6DqrUqlIarAAqgi7lL+LD8uUdSR4cHp0wwtfnnx9OqHBirvVWrtiwgsgDJMZbr6HyrppV/ABNwEK+B4SFvfCsxQiWbz13FEeD/qmuRXxwhQvrMzaHQzVL1e+l16cgYWQAVNWf9hz1CJd246SMTlFxtbLGD9pwMRWijwq1J1vJ6yEIk+UECjwKhZT0Xa9dOIQFsUsFRADFWU96UsxaEvFMhRYBRvUnSwnsoRiGNQQKsAUGkVo/1vCnh7mqL1d/mBCkiKFRDvHhefSdhB46uqUSpI1Ju+QhtoVqCANIcKTqE7FKh0etHanwJAde7JKL1HxXa6v2T2EhFQAZWXXOwmDqACqm6S2ctAgOoCqvREhcQcTz8dKomXNvspAFQXUO0nPWfqVQGgAqpec7vZuIAKqJolX68nBiqg6jW3m40LqICqWfL1emKgAqpec7vZuIAKqJolX68nBiqg6jW3m40LqICqWfL1emKgAqpec7vZuIAKqJolX60TmyV15ntIZue3EihzHMvpS8dz+uyz1XjoZ38FxN8ZuRVaZjKWJuGtsLT/XvpCbel4gErrmMP2VlDlfjHL6vxW0gKVlZIH7kfz7cYtmXKhsjq/lYWlL9RKX9x9K14qlZWTDfuxSuoeoModw9o+oGqYzF5ObQVVGk/uLF+6DjHTMnNduJy/VMsENZXKzM22HZXOrkv0uesRL+uq3PiX8ZeOA6jacmB69tZQlc7wJmIUVqkUA1CZONFHJ1aXXyVrktKELHUi99LVcj01TNNnLv9KnXRyvBVUJeuqeaaX/iyTtW4GVcqk2gKVtbPt+jNJiNfwS9YlLapVSXU9q1Jfnj8N4/hU4mKqllSqEgUdHWsJVWmS7g1WySSwttCi2gOVIygsQrFIiiWO0vXJbmAZXPalMZtMSq+xUKksstlJH5ZQpQV36e8i1wbLqkJZ7PrNKQBUTkgwDMNktl3FU1qtzJL1QqPSy9NLya3gX/SiUhkmtYeuTHffDKrVoolF4s43Vqfhs/XXkq1i+/F4/5DGC1QeSDCMwfQSsOCxpbeGtPzq4jRMos+N/0rSOjCZVtLVBARUhgntoSvrS0CLtdUWYDM04937yzbT9PJ8N9x9t65Kl+exmoTW6zug8kCCcQxWibKEZbkhYDzUou4sLvvWGxRLMEBVZIvPg82r1TAMvYFlBtRq1w+ofPJgFpV1tbLecTMbaGZHVhs613RRVaplkZk5Dg4TKLDsIAmabjYxnYmXMxnuBpaOr+R40wnniiYqqEyDKVGl42Mt7g0t8ljNxmdyBwfLOoev+QVUzgA1hcrgAdGr8gQFyxqot3ZGgapjqNLQqlSrK4tzZzL+Fo45UBv38IDKWTZYVqoZqlrVKghYaSd0Gocnzc1mUUpsVGugEim4XyNrqFLkNWbpCOusahPKjctfoNqPF9GZakBV9TLQ4c5gter0OtZbHgGVKNX3a3TLsNxIatwQ9riJUa06KSYPoMrN0krH1YKq+vpqpUe6IZqe3St9H0sjcc6Dupr+57bCXU+gUitb94CaUO2yvrqUR5iIOarWvsxbx6R5ogSoctyseExtqHa7DLzQaKleJU+ep9jngjEO88dZzHf0NnzVPPsIVBUByem6NlR7XgZujX+BTKLR8mrInhCdxaWstkAlcXXHNntA5QWsHWXNP5USqHSi6lDtkSQ592GOHNeSYdV3yvJT2ceRGUABVWXrvMK+HjZgvZEEmUABFVDNCgDWRSIUAAVUQHVSALBepSgECqiA6kyBo4Ol2Tbf3tlUJJbXNQJxKUwUND0aXNafQGP3T5BkuU28wi4Zz2HAMrjcu9QTqCQZltkmMlRpyHs+BpQpcfZh1tVpHQhQZdty+8DoUC0j7K5qVahOQFXhc8bXEOsFqtO2+7y1VfajaLenonotalYnoAKq7Mydq1YwuPaCaRGVy7/s9Lp9YE+V6tpovV8W7g1TFlQ5H9O0+jjkVgp7TV6vet2eDnQt3MFVec10Sx1VpbrVWat/9wpVKz1anbfVpWGqSPMVaYXfrsrREqhyVOMYkQK1IPMG0aUYQCVKDxqVKmBxidhqjaQdO1BpFaN9lgIWr/FrvhORFaTRQUBlJCTdbCsAVMEyhI0K/4YBlX+PziIEKv+GAZV/j4AqmEdAFcwwKpV/w4DKv0dUqmAeAVUww6hU/g0DKv8eUamCeQRUwQyjUvk3DKj8e0SlCuYRUAUzjErl3zCg8u8RlSqYR0AVzDAqlX/DgMq/R1SqYB4BVTDDqFT+DQMq/x5RqYJ5BFTBDKNS+TcMqPx7RKUK5hFQBTOMSuXfMKDy7xGVKphHKdwEVmnY/368nz9H5vmPb1R4dofYQioAVCFtI2jPCgCVZ3eILaQCQBXSNoL2rABQeXaH2EIqAFQhbSNozwoAlWd3iC2kAkAV0jaC9qwAUHl2h9hCKgBUIW0jaM8KAJVnd4gtpAJAFdI2gvasAFB5dofYQioAVCFtI2jPCgCVZ3eILaQCQBXSNoL2rABQeXaH2EIqAFQhbSNozwoAlWd3iC2kAkAV0jaC9qwAUHl2h9hCKgBUIW0jaM8KAJVnd4gtpAJAFdI2gvasAFB5dofYQioAVCFtI2jPCgCVZ3eILaQCQBXSNoL2rABQeXaH2EIqAFQhbSNozwoAlWd3iC2kAkAV0jaC9qwAUHl2h9hCKuAOqvRre9M4PGnUnIZJ/Qt94zCqfpFvml6ef358/0kTF22PqYBLqF7G6Zs3OxKEPx7vH7zFRTz+FAAqoSdAJRSKZgNQCZMAqIRC0QyopDkAVFKlaEelEuYAUAmFohmVSpoDQCVVinZUKmEOAJVQKJpRqaQ5AFRSpWhHpRLmAFAJhaIZlUqaA0AlVYp2VCphDgCVUCiaUamkOQBUUqVo9x9SBqT50eMsJAAAAABJRU5ErkJggg==;" parent="1" vertex="1">
          <mxGeometry x="489.15" y="465" width="95.85" height="90" as="geometry" />
        </mxCell>
        <mxCell id="jeApIvImyh64UdOUttwd-40" value="" style="shape=image;verticalLabelPosition=bottom;labelBackgroundColor=default;verticalAlign=top;aspect=fixed;imageAspect=0;image=data:image/png,iVBORw0KGgoAAAANSUhEUgAAAAwAAABGCAIAAAB31OK6AAAAAXNSR0IArs4c6QAAAERlWElmTU0AKgAAAAgAAYdpAAQAAAABAAAAGgAAAAAAA6ABAAMAAAABAAEAAKACAAQAAAABAAAADKADAAQAAAABAAAARgAAAAABT7q1AAABgUlEQVRIDWP8//8/AyHAREgBSH5U0WgQjKYC2mWEB4+eHjp+9uOnL+iZEZiDIWD6gpU6dgFAZO4ReebCFZgwiIZmzu8/fkydtxxiwNdv32cvWYtsGFTRu/cfkUUfPnmGzIUqkpYUN9LTgkuE+rnD2UAGI9BKCP/Vm3frt+65fvu+rYWRt4sdBwc7XB1CEVwIkzFaqlCxVGGBh+/DJ8+nzV9x5/4jNwerhIgAdjZWuBRCUX51+90Hj4ESt+4++Pb9R2F6LFwRNFoePX0OUQGR2Lr7IFwFkAFVJCYsxM3FCZfQ0VCFsxGKgAmjODMeIiEuKpwSE4ysiAE5LX/5+u3i1Zt//vxBFgSyR9MTLMRRgg6DQ4ssdeHKjcj0Ul37wPquqR8+fUa2ExotwAjyisp88uwlRC4iwLO6MA2uDuqmh4+fwVUA5XYdPAZXAWRAFclKSwgJ8sMlbC2M4WyEImZm5vriTBkpcaCQoa5GSlQQsiKU9PT377+Pnz6jJabR9AQKLwAb6tMjzMam2QAAAABJRU5ErkJggg==;" parent="1" vertex="1">
          <mxGeometry x="456.02" y="746" width="6.86" height="40" as="geometry" />
        </mxCell>
        <mxCell id="jeApIvImyh64UdOUttwd-45" value="" style="shape=image;verticalLabelPosition=bottom;labelBackgroundColor=default;verticalAlign=top;aspect=fixed;imageAspect=0;image=data:image/png,iVBORw0KGgoAAAANSUhEUgAAAAwAAABGCAIAAAB31OK6AAAAAXNSR0IArs4c6QAAAERlWElmTU0AKgAAAAgAAYdpAAQAAAABAAAAGgAAAAAAA6ABAAMAAAABAAEAAKACAAQAAAABAAAADKADAAQAAAABAAAARgAAAAABT7q1AAABgUlEQVRIDWP8//8/AyHAREgBSH5U0WgQjKYC2mWEB4+eHjp+9uOnL+iZEZiDIWD6gpU6dgFAZO4ReebCFZgwiIZmzu8/fkydtxxiwNdv32cvWYtsGFTRu/cfkUUfPnmGzIUqkpYUN9LTgkuE+rnD2UAGI9BKCP/Vm3frt+65fvu+rYWRt4sdBwc7XB1CEVwIkzFaqlCxVGGBh+/DJ8+nzV9x5/4jNwerhIgAdjZWuBRCUX51+90Hj4ESt+4++Pb9R2F6LFwRNFoePX0OUQGR2Lr7IFwFkAFVJCYsxM3FCZfQ0VCFsxGKgAmjODMeIiEuKpwSE4ysiAE5LX/5+u3i1Zt//vxBFgSyR9MTLMRRgg6DQ4ssdeHKjcj0Ul37wPquqR8+fUa2ExotwAjyisp88uwlRC4iwLO6MA2uDuqmh4+fwVUA5XYdPAZXAWRAFclKSwgJ8sMlbC2M4WyEImZm5vriTBkpcaCQoa5GSlQQsiKU9PT377+Pnz6jJabR9AQKLwAb6tMjzMam2QAAAABJRU5ErkJggg==;" parent="1" vertex="1">
          <mxGeometry x="533.97" y="746" width="6.86" height="40" as="geometry" />
        </mxCell>
        <mxCell id="jeApIvImyh64UdOUttwd-47" value="&lt;h3&gt;&lt;font face=&quot;Comic Sans MS&quot;&gt;duration&lt;/font&gt;&lt;/h3&gt;" style="text;html=1;align=center;verticalAlign=middle;whiteSpace=wrap;rounded=0;fontStyle=1" parent="1" vertex="1">
          <mxGeometry x="510" y="609" width="60" height="30" as="geometry" />
        </mxCell>
        <mxCell id="jeApIvImyh64UdOUttwd-48" value="&lt;h3&gt;&lt;span&gt;target&lt;/span&gt;&lt;/h3&gt;" style="text;html=1;align=center;verticalAlign=middle;whiteSpace=wrap;rounded=0;fontStyle=1;fontFamily=Comic Sans MS;" parent="1" vertex="1">
          <mxGeometry x="430.45" y="610" width="60" height="30" as="geometry" />
        </mxCell>
        <mxCell id="jeApIvImyh64UdOUttwd-50" value="" style="shape=curlyBracket;whiteSpace=wrap;html=1;rounded=1;labelPosition=left;verticalLabelPosition=middle;align=right;verticalAlign=middle;size=0.5;" parent="1" vertex="1">
          <mxGeometry x="108.99999999999997" y="716" width="25" height="68" as="geometry" />
        </mxCell>
        <mxCell id="jeApIvImyh64UdOUttwd-56" value="&lt;h2&gt;&lt;b&gt;&lt;font face=&quot;Comic Sans MS&quot;&gt;DPO&lt;/font&gt;&lt;/b&gt;&lt;/h2&gt;" style="text;html=1;align=center;verticalAlign=middle;whiteSpace=wrap;rounded=0;" parent="1" vertex="1">
          <mxGeometry x="48.99999999999997" y="733" width="60" height="30" as="geometry" />
        </mxCell>
        <mxCell id="jeApIvImyh64UdOUttwd-69" value="&lt;h1&gt;&lt;font face=&quot;Comic Sans MS&quot;&gt;&lt;b&gt;Policy LLM&lt;/b&gt;&lt;/font&gt;&lt;/h1&gt;" style="text;html=1;align=center;verticalAlign=middle;whiteSpace=wrap;rounded=0;" parent="1" vertex="1">
          <mxGeometry x="199" y="403" width="151" height="30" as="geometry" />
        </mxCell>
        <mxCell id="jeApIvImyh64UdOUttwd-70" value="&lt;h1&gt;&lt;font face=&quot;Comic Sans MS&quot;&gt;&lt;b&gt;TTS&lt;/b&gt;&lt;/font&gt;&lt;/h1&gt;" style="text;html=1;align=center;verticalAlign=middle;whiteSpace=wrap;rounded=0;" parent="1" vertex="1">
          <mxGeometry x="489.15" y="420" width="74" height="30" as="geometry" />
        </mxCell>
        <mxCell id="jeApIvImyh64UdOUttwd-71" value="&lt;h1&gt;&lt;font face=&quot;Comic Sans MS&quot;&gt;&lt;span style=&quot;font-size: 14.04px;&quot;&gt;Select strategy&lt;/span&gt;&lt;/font&gt;&lt;/h1&gt;" style="text;html=1;align=center;verticalAlign=middle;whiteSpace=wrap;rounded=0;" parent="1" vertex="1">
          <mxGeometry x="108.99999999999997" y="618" width="191.93" height="42" as="geometry" />
        </mxCell>
        <mxCell id="jeApIvImyh64UdOUttwd-77" style="edgeStyle=orthogonalEdgeStyle;rounded=0;orthogonalLoop=1;jettySize=auto;html=1;shadow=1;sketch=1;curveFitting=1;jiggle=2;" parent="1" edge="1">
          <mxGeometry relative="1" as="geometry">
            <mxPoint x="369.72" y="737.89" as="targetPoint" />
            <mxPoint x="406.72" y="738.28" as="sourcePoint" />
          </mxGeometry>
        </mxCell>
        <mxCell id="DwbIfkqpnQ7Z0dvdBgJN-3" value="" style="shape=image;verticalLabelPosition=bottom;labelBackgroundColor=default;verticalAlign=top;aspect=fixed;imageAspect=0;image=data:image/png,iVBORw0KGgoAAAANSUhEUgAAAZgAAADeCAIAAACPL4HHAAAAAXNSR0IArs4c6QAAAERlWElmTU0AKgAAAAgAAYdpAAQAAAABAAAAGgAAAAAAA6ABAAMAAAABAAEAAKACAAQAAAABAAABmKADAAQAAAABAAAA3gAAAADRvhXfAABAAElEQVR4Ae2dCbxPxRfAs7UqlaRFpU1pIaGIrCWyRJKdLCH7nn3PnjVLUQgJaSFLSZF2hUj+kUhplV3I9v8+573zxr3393v393uP93u/37zP+7w3d+6ZmTNn5p45c+acM+lOnjx5jv2xFLAUsBRIyxRIn5aRt7hbCgSjwCdfrr67eJVyNZsFA7LvUpUChw8fKVSuVvHKT/24dXtyELGMLDnUs2UjlwKfrVr7TOf+4NewZpXIxTLmMTv//PPKP1xs1+69dZp3+ennX8Omh2VkYZPOFoxcCnzxzbdNO/YFv1qPl69W6ZHIRdRids45XVs/XbhA3oP/HmrQpse27TvCI4llZOHRzZaKXAp8+c26p9v3Ab+i99/buWWDyEXUYnaKAhkzZhjep+MN112DXFa/dfftO34PgzDprLI/DKrZIhFLgT/+2lm5fmuW98svy7Jw5vjMF10YsahaxEwKwL/K12pOTq6bc742ceh552Yy3yaZthJZkiSyAGmGAsePH+/23Gi4GBj3aNfUcrE0M3LnnHP9tVe3aFgThDdt2TbulddCxdwyslApZuEjlwJTX39n1drvwA+dy8PFC0cuohYzLwo8Vf2x7Nmy8mbKrLfRcnqBBMyzjCwgaeyLtEWB9Rs3j3ppuuD8bKtGaQv5tIvtjt///PfQ4RTBnxPMLq0bx49g/5G79+7zX61lZP5pZSEjlwJsKrs+N0rwa1Cz8s05r4tcXKMIs2HjppSt0axS3ZbQP0W69VCxQkjTVIXi//kJ0/zXaRmZf1pZyMilwOJln/z8y2/gh46/Sd1qkYtoFGF25L+jr86ZT4eOHjuWgt1SafqdxR/6tyyzjCwFh8BWlToUQBwYN2WWtN26cW2r4z87w8DB4mPlSuXOdVP/Z1tlyJAhpRpFmq75+KNS2/gpr/us1ppf+CSUBYtcCrB09xg8VvD7fNFMy8gid6j8Ybbhhx9rNOkksPNeGYlBRpLlrESWJIksQERT4OjRY2Nfjj+tf/ShYpaLRfRo+UPuzttuwT5WYMdPme2nkGVkfqhkYSKXAh98/MWff/8j+JV/qFjkIhpdmP386++r132/b/+BM9StymVLSc3LVn6xZdsvSbZiGVmSJLIAEU2BRR98LPhddOEFcuAV0eimfeQwwW/dfVCF2s3rt+pepELdjz756kz0qWypolrtex99qulACcvIAlHG5qcBCuzdd2D5Z6sE0crlSmXKlDECkf567QZO93778+8IxC1UlH7/8++6Lbp+/8OWaWOfq/JoaYr3GT7eXcna7/439fW3kdrcr3zm5Lgme767bxfgBe8vT9KT0jIyn4S1YJFIgeWfJooDKMgiEMWFSz8mqAP2VgcOHIxA9EJFaeCoSUeO/Df35RH35rnjjttupjgGX7v3OC1XN27eihVY9ac7bNz0U6hNKHylhN3lr7/9ueGHLZrvmQifkcEjcWqDQ//w47av1qxPZlw0T+RspqVAcAosTNhX4tpyd+5bgwOf/bfrvt/UZcBI2u3Y/Ck/R29nH8OQWoQrIf92bd34siyXUHDdhk1S/JKLL3LUU/2xsiUeKAh/aNa5HyzC8dbnI8axCvn+8iR2l2Eysgp1WuQp8TihHcs82eSJRu0ate315sIPtFWbsBQ4CxTYuWvP51/He+Tdl+/udOnSnYVG/Tfx185drboNBL5Y4fx1q1XyXzBiIbNkubh7uyYVHykpGH66ao30zm1Elj59uv5dW2GcjLxGeMsDB/8No1OXXnKxemi8s+SjEydOBKkkHEaGLCZW1EHqta8sBc40Bdas36hN3H7rjZqOhAT7rzbdB/EZ8zEP6NKaDzsSsEomDtdkz1ajcjnpC9s9ekeFLCGe1cKGxg7sxivOHDv2GX7sWDg+THfdfotUTltbg8ZcDEc5ytI3c8KQTT/9/NbCDxCePbthMy0FzjQFTP1LrptvCK85hIXln67avHX71u2/bv/192N4CRw/jm2a1MbpAeLG5ZdecnfuXLlvvQl2eeP117oFEHfTA0dP+u5/P5L/XLc2l10atxGLsh/U+dKjfHfnDtS1PHfkIjLPuFdmffrVmrkL3q9ZpVwgyED5t93C+vSRvN205WcV0Nzw4TAyagFFfgvnz4PLqLtSm2MpcBYo8P2mRAXwLTeGzMjgg/PeXTr7nSVJosr+Y836+O+Wb6lXx2fuDfz1UhsyiGha0IsVKXhPkvVHFADxdZd8+MlV2bM9Xadq+vQBd2wSLgnM4e9B8K9euSyMDICJ02ZXKVeK+BZBgN2vTMXixs1bypVOtMlwAIfJyKSW7NmucFRnHy0Fzg4F0G+oUMD27YrLL/XfLt/q8xOnmQKd/7Iwqfotu2F50Lllw0BeBMocn6rxWKRp7oL3lA1j4/a9BebePLkL3nNXIHixeilyX77gJi8cC7Abff3txewN58x/r96ToekKc92UuD59m3C24IlSshiZZ40201LgLFDgtz/+kkiwtJUndy6fLbJtnDBtzovT5gg8fjDEX8yZ45qZby5Uvla3WsWHihf+869/fv/rbwJn/7LjD66Vc9T/1qJlGdKn792puSOfR4zdZ725iAQGumVKFHEDRHLOx198rehdeMH5mnYkfvntD1GQ3X9vHscr92OtquVhZOTjAV61wsOQxQ0TKIdduZwYAIAjAfr+QEJishhZhB0TBaKGzY9CCmD0o70iAIOmgyQQ4p7tP1LMxPmcRvTr/EDCvm/ewqVasFD+vI6dI98tvI+DM4Uh8ca7S598rKy76XeXrhCwp2pUDjXwvFl/qqRRZmm7t+S8XtOOxOpvv5ecAvfc6XjlfkSryC0wLAYsPIs//OSJCg+7YYLk5L3zNnUewMKW2jyBA+6BPaEdmWlLbHYgbx/TNAX+9+NWxd/UpGimO0EgbHV2MbkYkKYN+o03OD+V6665akDX1oRhcEgTazf84GgFkWH63AWSWSh/0tKKo3jqPv539OjHn38jOLCpPO+8cwPhs+rbDfLqDn9LiC4Yn69aG6jOQPl35Iozu5Wf/21OHPSEvPj/lpE5CGIf0wYFdCcIuldecXmSSP+1858RE6cJGL4v+mmRs2ffftkoydtrr7rSszbYJezPfPXrb3+Yj6TR46Bmkszb407c0tKPySbuD8yFEWxXfhHH70oWvc/PAS6QSFVCCCQ+dvchEeWqK+Oi+MvPpp+2JSSd/z22lugFkAM/+XLNrj17slx88dVXZbsqW1aEQ/e65ymRYUGzYdMWFLGcYTMnsATJGUAaVFxOnDj5w5atn321dvX67w8cPHTLjdflznXzHbfeJD4QCmYmqPybdRtWfrEa5euhw0cogqIkz523ffHNuqXLPxvcs53n5MZYBICvT91PcdMNOW658XpIfKuhUDSbII3J5fnnnRtIp+sAPsuPf/+ze+eu3fv2Hdi7/8Cevfv5GrNfcTmB7kADem7/9TeO/7f9siPnddcyKbNlvcxED79fDrO3bN3ORLz26uzYxOPaZgI40lT108+/EK6T3wMH/r3mqmyUKlX0/ttuyemA5JGh2b13b6ZTlgvMEH6Y+vwwTFASzct+xvjwkYszX5g+fYb0vD3n5InjJw4eOpQpY8ZLLs7srtAzh75rvkNQ0nwzsfzTeO0Pm8HhfeJjXQkA1/YoJNM1kBYGGNgfbaluLutlWbSgJAikJQnO9EM9oXNUdfYf9fCEpguevmdkdrGdLJjvroszX8QXJ3y/cAG/B7K33ZxTugPpEKWJ0uO/dxdekKhT2+PyhdJ6TmNkNDNg5Ivvvh+/yVcgEiNfnP5IySKDe7TjNk0z30wzg4eNnyKaTjOfI54e7ZuemymTmalp+Ga7nkPE6EYy0epJghYpiGWdAksCftS+11AN3kImRea8856C7d2338HIuB+h7/AJGikBSDUKb1qvWpN61Rzo8bHhXCKSdvtm9QkDr5VHSKLn4LGmRgOssCCHkc14490XXn5NPzbBlu9z4rDeWS7JzIUOQ194xT3EHC11ad3IvcDCynsMGuNoSOpEd4vD3cBurWFqJk0mTJ09acYbZo6mB3ZvU7FMiZnzFsqRvOZLoln9J+VCMEe+5yOflub7YWSsWAxigbx3FSqQxzHWpiRye1BjAlq8IutlSlu0aYqDJJSRFQh83ucoIo/IKWxv8fPb+vOv2LKxnyKSx1lghbgf0PTJU0joF8ETKwrHKeekSwetAHjoicZkPvnYI1yyN3z8VNLo4Ms/9CAJPz/sUpGCxYRl1ZrvQmJkphixL7C/aiIjY7ElOoea7D9d5wnGnmWTeE+y7Ue/wApMvifq/8T5IvT7cvV6DG3KlHgAmGUrv5S1jiMeGHmnFg3cBbn0qW2PITIz+AhLFbkP0WDbL7+9s+RDmAgtYq7CLcTmMTC3ttR+5lmqyp4ta9c2jU9t5s8jk5MRNw+VFs2uIVc2rFnl1puuR+qEOwPw4qtzV63dMGX0ANP8etGylaovYEtSokjBQFpGd6fOTo7bY+P48RM4JxNogQ+bc+6sl1/61er1woNYJ/oOHw+nqNeyG9RmjAiTwgRduuJzFlgQhnoXXXRB2yZ1HcgPHPWScrFhvTtwJL91+28ff/41FljUw/pRtWG7KWMGmMZE/x465KjE5yOTxCckYKajcpDzNa2QqespPwKwcXOiY7N53q9lNfHP7j36gfAlu7meCjWsHFoqyQQsrEv/EeZaLkX4ZEK1V0iyLROAr0+uZDczJV3lqTaa2atDvK0osUbGTJ4p82FE307+xWequueueEbm7qY25JkwBxfxwhOGzHhGdujw4RZdBuj23gwvq365QC/58NNAjEyEHY6u2zatKysekA9VayxSKF/XM09VN5krtcFK8MMSzEypB17zULHCY1+eOXnGPIq36jpw/vQXVMIiU4oM7dUeiUDS7BO7tXn68kuzuJd6ZJBazToLr2RZGDe4h3wwtHLj9Tng3dTAB7nko08eLZ24wuiMlPrXb9wUaYzs+b6dkEqYVc+NfEmQJM0vnH1Ir/ayl4Rlc04nQwPP4hdIMls2qiXmP41rVy1TvYmM0csz32xW70lTCoBXShGpn+kB+7vyiqz333v3g4XulW8AwvYeOu71F4frMtD66Tpc/8FW0cSNGpC2Sj8Y5wZc54kKH37ypSq5iFqR985cyCAheX3LgApifiQygfT8a441E8kTRjK/Wh13aab8ML21y5KD1K9f0BWXn7aXTyjk8f+zVWubduwrL4hVf2eum/89fAT1CEs4yxJ28yGRxaOBwFmsSYFfxr9BEVb8gQLnPB/3KEcl7M3xgc+fN+nzSrPyrJfFG/rJZDNfBU+bTMMUwx2l4pX9o16coWPALDfVYZkvvFDLmJVqpiawjuvYvIHK7XwqfBj61pwuZB4+fKTPsPHyFoNdx96NKcItEuKRwJRFmkDJIsDrNm6WxNXZs0lC/zao4bEBnDh1jk56zp7MZZ9B4puU4iMmTGNrrFWVLHKfpknQNfMxEtJ0hNM0toSmBQBiwvP9OpkaMWwyTWzZfrLSqBEjMj98TQG+Pf0YDvWWqTu75uorFZJdFRsNeYQlmdepsoSChuCmizmQaIjFHAGtxwXnx9kowYDmTH5+SM92tR4vz4rt3thqc44E666Z47+gWUrSuCjpzCfnxsCMjEbHTJ4hpRC43A43przAVsbdljsHozO9xe6Nl0eyGLMvoWYd09mnLLDcBUGGXYg7P6ScahXLfDx/Gr/L355iToMJQ3tKPn+H9mzP0rV41sS+nVvAv3jFohXIvzJI6yq+7dqzNwiY+xVaVc00KayZkohjZKh+X3tzoTwzBes9WdEEeqJSGeFrzOkOz9Q3XznS9NOxRl137VUKg3Ja0ySmzn5HlVzowsxXkuYrqlMtHhN2eYs+WCn5On5dBoziYMEsyGdpsmBesW/SrsGzuJbdhCddqWxJyQEZ6KBv0WS3alwbg0mmFLKPricKEDkJc6Vp0aCmhFhR9GAomibRqXkDCGvmXJ8jkSaOMQKyXdN6Iu/AykWe0rImrzf15QpAolqlR0TPQBrN5kvT43RnU2a9JWrQcYO7m3tSs2DwNKcFCsCM1XQYic0/bddS9FQFf83UBIoIZXn9nm3p5p7mZ2aul1qDO4EyRCSUhrUe150v81CuWQOe0xF3KXZnJas0xDtQg0q6YfzkoO9mtvDL9P5xWyId7rv3bsnnr0jofPuPl3+ofvXHOPRzfON+GgJGCYJO3GcRAbvIUPab+gRHJXFbS1PJx7mMrJYKx5fATpPT62xZL3d8AwpDgvkkApSZaZ4MHD89CsestxYppHkWrpkk8t6RaLH90adflX+4GJm4B4vWkI+hfO3mlR4pieKGQyJh+WMHdmUvqRsEBHSt8G6jNs281fDR2/H7X9oFMG9S9wl+FTJiE+bEQpPtwBOnZ81Bq+g+Qc6QPhEArZkCSwI2VLxwAUh61ZVOdzRqU+DDp68omk+id8dnEPRk0eJ8gGkghvVIH6FuT7Tag0ZYGP1C9G1ICdMeLdA85ALHwWMmv7HgfakZdarnSbcZrCb43kUxXLdxk6TRvmmmuTyXevB+zdfE4mUrZZPBtkYzk5MgNIVqhDlk0E1Vcup0lNVhAnNO1c1J64B0PJo6MsqyM/PkQnGMDN2tFnacQGk+4qWmPROcsLobSJcufusaVyRhb0iSva5ulfkeHKxT689inFfqedBT1SuvWT9YYPg89IAMHoRnyVPVH7vGsANCza+1oVz7JsGQTzPN7aTKevo2TSRMcwGH/AX+6Qy/X09zFkwggncTOVe4GJ/N199u4CiG8ywcd7B314K68dccTbDAYH4l5zNkChdDuKsReiwErfPAv4kSWRbfFhta3ExsNDzPYdnmK9JoCVkLUbyKihqRbeygboHM2U2szM/PUaf5qP4J3GiHWFSySMG7br8VLskpFmep5R8ufl++u0x4SRcrlB/9I1oC/Kvcb8PIMY87wtg2+mnxEuMk58DBg7rTTLKsqkEEEkWkbBEcBeMYmVKTNCGHHBA+H92SNgXxR9Pi5lzf+vMOzTe1y5opiXPPTbTYQKpHoUD/OUBETHh/+WcOYHaR/C5cumL0gC66wdxiCMzAawwDR1l5dJDMEyYCM01G5l5LzCHAUMuNf0aDkWHS5QYgh+V6/nsfqVm8J0yQTORllBLEPlaYPp2bu1HVt0km3Ce2SRYJBGDGoSp8ymMJfg2PJvoVxhAEsVAFCLsq9ERB9p7mUu2zd1gyav2vvPYmv+CJ6rbW44+iNwyEM4aBb08bE+htGPlmZLd788YfoIVRT7Aihj6D4/VgkEHfmWzEBIyb2eaN5z5FYrMKSXvKip6ZwJvahCDisfkRUordNYyM7xalFVZj/UdMdKMBv8MgYOncSSJEmEof9jjBw7qnOc846X7wb8ZUiHlCpjvHmGIugqKVGDRm0uJln+gbPjNiECP/MnBPte6h+cET9Z58jJgQqmOav+Sj5BgWmLMUe+DgTQd5S+/E+gQYlKGcR02eOU+PU7Ugm4ZWjWoRGTXQfBZIU8qAOEFWaK0ZNyZkK32UBK6F/DauU7XN03Ucr87Q45er12nNPo28UOQR/Mb/J3PQUGti6KPNJZlgX2/CBBJ14xiZuVCjDTGL+U+nN3eRWsz4jIyd5TmZjTMdU7Og5SSB/beZc2mWi/WRIzNUZihf0JRxY4BD1Joy622Ec4BRlunHc/TY8UBU0GrTYiL41+XJvE7rpjFGp+Wfcw5DU+uZzkpA9P092zdV5YN5S0OgdVIr5FhT6yETw4ICee/03OpqkSCJzMaXsPP0Q6QgpdyvTGU5/KtD72EOGLhbvWpcglHU1PY6YPTR3D1huumHkWGutHr9RnWK1qpIoAkpUjCfYxsLndlyZrvi8pDCFpnVutMoRlVBxoGYH97ESSs21ex70J67K/TMMWWXkHRwpj6UTaW5/zAbimNkhQrkZYsuuUQvMV8HT6O0U4B0oQTzNU8PTyn/vKNzOOaoHB0OGPEiKjYCb9IrtLOioGUBxKJ99KQZgg8nla2frg0A8fZ0kHaHeO6rXYvwhDkKKYsqm0HlPpincchoKhDc+zvRxUJ2B/fk+gk8McCNEyHVjXboM2zu5BGmbOUfedNthUb9F3RAem6W+T5zXncNOm8Yt9vEx1GD+UhIe31kDQi2CU2Ag54j+nZGH7Lyy9UYjilx5D1T2mRkqIDa9hwsI1KhTPFB3dsmVJOs/9x4pOXv8xGWB1lHPEOwfIaxOsZaq3Ik9h+Mt2UN9ZT5wL//alVBZkucDuvxU/fTCTSWilrMkUDwZkNnnoCePJnUXtcUw4zqWE/M/gSKxv3XP7u0ECMnXxFhUph/5gEFMKx+iOJDe3VQeJnfee64VXPcMry+wrQac1BT5SmvOEsKIjBq8dRNBJeGgr+Nw9wYIyMZ57DJ6Zh2ze3AZB5DSyulqzYq/GhtB2fhOIWQ7WRyhL9w5nhsPqVOPsjnRsWb8morPhMmI6OIw6zMZyVwDZ0SzMZvP5r31Xuz1q94CykD3cUTFcuExMVo1JTIkpw2rK+su5hZHD5yBNsx3FdWvD114Wvj1TqPCnF21r7gS1S/VTcsBMGNTFiJe7oqMOu6/zvAxRRGyubPk1srQa2OJtrdCi6D2EthWw4n9cnFqHPf/nhGhkmHNuEngW+vgplMQzMlEcfIsB5Wu0dUBo5tmsBBmmad+qGWOv2sKrE298k978yvyKFIxt5VC3MWpmkz8cEpS3TJKVcq0eyenLcXLzMhJV2q6H2aKfTiTirtGmpdVYgomCQGjZ406qXpOPRoPpIwrg4lKjfgy+SqUc2PwMSxY4l2vGGgZ46LOV5//L3TZEnuWNI/GIF0EiVzFwYjX3xVFOqIHqyo7ZvWUxsXvkbPcXTV4cxgN43cp7n7jbmumUkmzH0lWj/2LIFOz5OsSgBYaBUrc713F//kqzXMLjaPbLFnv71EAdip9GzfDC2k5JguUK+/tZjh6Nu55akw9nHvt2z9RQuaiYnT5pSo0oA7wJt06AMzMl95pgMpyHBMZK89fc4CRymYF2z31RcGYcPseBXkcU+CzorzjSBg7lfmntRcKhyQcYwMzGpWiV8necSMHldhB9z895ZDRzhiIAtGz5OIE8YS79gBcS805qbSyqTpb+jZjbbLzcwayo7Tenxi9BUJFjQ3V1JFBp+KHEEytzDp1IL4gpgGO5L/4covZWXmtFshTV9LdliBZEaFT8WEg7AOTMy3BJxyvOXRBDB3i1kvPc3QdO/+/WZZ9heDx7ysOYcOHaYeYXyqcmXxw31dHHXZ6Yu1OrIzn4EW7Dn4BVPXpvlJJswbPZIUfzxrIzK95j9YKL+mk5NQF0u3IGNWu+C95fr4506nMkcJqPEdsfNCW4K/PX5yuh3Oc2eilaXWxkTFWEQGAvvQ1+Yt1FeeCZYu1b0gZKleDwEQu2WKoMXzLBhqprpYhupxtd+wGTSPUxwIxJtH1K5aXmV+GETdFl22GZcvMeRyRNi9bRNhEFh1saWfNvsdrY6NJwssfynIxFq/cTOulHPnv6cAi5d9vOKzr1mcxXQLFjOyX2eRFeFijdr1MmU95kG9Fl2lLDCep/WYJpkHTAwJUYylSLlSRbVdbDXYdcojDeHdia5Bv1i83LsNHM1bPAFNBSod0RpI4GtpPkZCGjqDJFYR5h0cCI9fr93A6EANpg7B6eVEXxDmbISLrymFkpGFTsYI92/tzoL3VzCtGSO2XZiPqWgAAB6dygfhUDzK1yJlV3z+tdiLIpIwjpxyYgfP5ac45AsANFd4xAQVk3nL0MPsEFJol5oFPsm/amAJZBiMjPXMtANPKeMpjWxj7tfcfTEDmZUueprJK+fsalpE2Bwpy2hygtmiYQ1WCyLVkomXsalo1iZMQwoyHT5nCqYJ/RDIITSI5MM3O/YZxnjBOmX5UXj8xpk2Zil9FSTBdk138aGe8GB0pjWbg66ZkohT9vMDW8HSGnNKYrzwiP6iYt2WzDZceeFrIvuggRJ3E8hao0mnU+US/9Bt8RrDTg9XBq7sTXx3KsWOtWXX50hiBoECggSGfzPGD27Qugf8haACj9Z8hnNuhgfVmMYYYMAG92jrjuRDcVp88ukOKKFZmk6eOMmXII4yrIqNasdzrlMtn9OqUe3zzj1X/MnhfdwozPeGfQZ2asIKGTD8nAVY/uJ/IxpNeYxAX0suHDM/RcFTbbW++WBOzabOMYI9ycXXOLdWLldafZW143x+8gXKGHVp3ZgvQTTQCAIYwSMaHz16lC+NIWOB4USPLTnFGS9Z6gjzgg+57CW1WhIUx4VQTPmHjH1ZzxB4Rf0y60ib0QrM4u40AQI0M0h0F4VxJLgCTnMY/ZQ6zlbWw9Dw9fJZaStmQj9I6GyGMMR+m/2gQOKmqo5xSA8iZ2DRDeUBMPXaZs1F789nPiJt8LUG0WSZGB47HqejYFVgw8vXyvi2bZpo/wEPfX7CVPGd4hXWmv63lubmKdR4k6pcA7dLA+vX4hmZdB4x8oYc17zwymvyeTPbZMJxjtO5RQOT4qILYNFWMZgasEdjUvJKdLEkPAFMY3pY5zuvjiU8w7Q58/kYGCQZJ2qjUQaPK6RMWgue/OXeB2L9EdmKoeJX89nC1K5aQfeYko9KhQg2nG9iJSRH3TBBIS5ItmtWjzjiDiMGGBnO8wveXw4HJGCZTiltKNUTcoLDlHIMgTi4iAleoCH47794tVogAPHUxTqa0Rk58VW53IwBUvkOIbdRrcfBAR9gmdwsQtz9xZkMzmdmtcwKUILgum2RzxjMoaEgrzB4k/skLJ5qusgfCBzdJVBt5jkGOAcCCzXfjMv849Zf1H3SUQ/ivyBPjDyOJomXxYz9/octuv9iylWtELfYO34SlS3FCjleySMeOOjgX507Xz5hyE7QTXMb7i6FodKg0ZPJ5yjvyJGjRNCiFCM4bcxzpj8P97kx0M+2aoTQx0r2yqy3xjwXv2dy1+nI0UAPSDnKxB0wgR5NHRnxUwOBxUXvdL/jFO+XHb//s2sP4WEZmyCnnu6y4eXA77HC/+2PvylOUFba9ZSceYtK68psWUUZQSfxmOF0Hwz56q6+6sokrWA4zeG8+e+du5g6NIGhmX5g4WEeC6VYpVHt/7VzN3uKnNdfQ9RZJrp2nLcsP1AyyMqvwCmVYPfaud/zUhs3s4WkymFfyTGOlIWffjjvZc/FMjxUCQwliyVbHFXXuKvCsG7C1DnuHSj+A/TF0+sT/lKoXC2qQoQkRCVcD18x2SS560cevKfUE+R/sfg1c7DckHx6vYa+oAZYALDL6dmhmRm3Cl3EgxXrSbvdnhvNAs+69cEbcezPz4/GkpowrFfREAPJIODLOkpDQQT20yQyxemGHFfzq49nIYFAxE7T0xfX0brpRgt3R3cYkvoQfaGG7nHUbB8DUYB1IoiDN2/PwlLnwM0UdkLVYBKvU2vDEygFuRjVPlnpEWFkXDFXvXI5h6Sv7RIHiV+cVTjrYOPCYkAIsxxXZw8iPalpVKWyJZA/+MLZ0ARiZJt++pm2YDfBuRgwYDigS6uurRuzs0FHyYLEZkjxlISoWZ6u+wT6TbgYmRifOmACPaL1k4h4qKoe8B0dW2tDZavpm24IKJF5MzItaROWApFJAXOh5cQmJCTnL/lQ4PnOTbutkCoJBIw6Fd9StITsxD9btQYJKxAk+ShqxZcuCIy+kgMoREgkpq/WfIdGeFD3NvrWkRA1Pz4JjvxAj/A7bJUCvcVvCRU5Mpoqjis9UiIQsCNfT5NwUwvE1h1F9JH9E2SURzZhDpWRgpGIP7U0s2zaUiDyKYAYpfGB0cyqajVJzDmSE0tJQke8/tLwUO0zk6yf/XWrxnEbQH5Eeyjp5P8VUz7OJcC/TfdBBAhzi07SCptQCaQcF9w1JX6wzOCAiJpklwczxcPMT8WIeGqGWTF0XaRo+qQhzzBcioNlZEoKm0hjFFCjLfDe8L8ffWLPqv7+nJfQHBFcyDS48VncDxh7RmGynF2aoWX8lA0CAyvB9JLztwZteqC5Jjp8IGDuB4GzY02Z765ES/1AwP7zaVoO1qo/VjaQz6OjNgLlw1XJ5LQtDP0Dph5aIUHANe1OWEbmponNSRsUMI8INUKhH9TxPUpSc+SnniAw3ds+LW97DhnriN8QpFTwVxghvTtjHOfIxPCZPLIfd2J5wmO/KTZ9g3q0DbIX8ywbPBOfUAHAdJzDBE45sTMIUoSzCCw5AGC7DSMLAhnolWkHl+uWnIHAyLeMLAhx7KuIpsA9d92m+MluUR9TPcGmj/D2oMHmaGTCxcApghXKeEStIMombJJoCOOhQE444aHB4ebcUzFy2WaioMRwGsvB/QkelO46MZ/GwwlxDB3/kJ7twzhRoUW1rGLh4X5cdyuaYxmZksIm0hgFCCiEWl2Qxo7BtE+MhJ6g5sdxEkzgLNgMnTWUerRr0r9Ly0C3nYWNBsHuRRFJVCPOTLlzgwNT8+zYUfPol2aIWdzYgd0CCY+OIo5HLpmWbSn55Uo/GDzuqWVkDurZx7REgQplSii6m08ZHOhjJCQ4EuVWETDBDS7uvtuz8gN/x20jiMgWHhbYhMt+nE0l13izcrRpUidQVctWfiEHHRjNhuolrnVu+GGLpst63U+kb0lYRmZSw6bTGAVKG3dzmAZHkdONdk3rdmvbhNskMmXKFDlYhYEJApHcA09AQLRjWGMEMlmncqzsicb84vDeprtuqI1+neCxAwM147J51uNt2e8JajMtBSKQAo3b9RI7MnQxxDvzeZoWgR1JEyhhuItDKAZloXoahdo7LMiIRCSlMFqWgM9BKrESWRDi2FdpgALqKYlxgHn7XxpAPQ2iiAkFeskzzcUgjHqVkn6kVJEkSWUZWZIksgARTYGyJYuK/zlYyoFdRKNrkfNBAdRwGiIMa8F8PiI4Wkbmg64WJIIpgM9/8wY1BEFMqCI5BGYEUzGyUOMGA3XVaNGolp9gBJaRRdYQWmzCoACHdCqUzX57cRg12CIRRYEZcxcIPmxjfUbLsIwsokbQIhMOBYjdpFdAsLs0I1iFU50tk6oUIByIRgFQr9UkMbKMLEkSWYA0QIFKj5QklIUgqhEa0gDeFkUXBbhmRfJwIcBr1fXeO8MyMm+62Ny0RQGsnLjqVHCe+Ooc/5ehpa1uRj223ETBjfTSzd4dm/vvr2Vk/mllISOaAsTLFDN6ovr0GTY+onG1yHlRAO/6zv1HyBu8u/TaQC9YZ55lZE6K2Oe0SwHuGZJbf5au+FwiQKTdvsQg5mMmzZAAZPgDVKvkcWVBEJpYRhaEOPZVGqPAuZkyEWhBkOZej/BuzExjfY4WdAmnIe6ZHED37dTCj8mF2XXLyExq2HSapwDeM4N7tJNudOwz3P9FmWm+52m5A4TW0KtkRvZ/NsjFBYF6aRlZIMrY/LRKgfIPF+v3bEuw58Y/vegzrXYmBvDGjr9L/1ESseflUf30fvWQum4ZWUjkssBpgwJVHi3Nzafg+vrb3GD5RdpAOlax5HoBCaA4eUTfsK98t9EvYnX6xEC/iTZDFFPi3BMhOga6mya7uHffgaIV46JcTBrRx7/VmLurlpG5aWJzoocCf3ETc4YM6sAUPR2Lop7s3LUnQ4b0ybzOyjKyKJoRtiuWArFKAasji9WRt/22FIgiClhGFkWDabtiKRCrFLCMLFZH3vbbUiCKKGAZWRQNpu2KpUCsUsAyslgdedtvS4EoooBlZFE0mLYrlgKxSgHLyGJ15G2/LQWiiAKWkUXRYNquWArEKgUsI4vVkbf9thSIIgpYRhZFg2m7YikQqxSwjCxWR97221IgiihgGVkUDabtiqVArFLAMrJYHXnbb0uBKKKAZWRRNJi2K5YCsUoBy8hideRtvy0FoogClpFF0WDarlgKxCoFLCOL1ZG3/bYUiCIKWEYWRYNpu2IpEKsUsIwsVkfe9ttSIIooYBlZFA2m7YqlQKxSwDKyWB15229LgSiigGVkUTSYtiuWArFKAcvIYnXkbb8tBaKIApaRRdFg2q5YCsQqBSwji9WRt/22FIgiClhGFkWDabtiKRCrFLCMLFZH3vbbUiCKKGAZWRQNpu2KpUCsUsAyslgdedtvS4EoooBlZFE0mLYrlgKxSgHLyGJ15G2/LQWiiAKWkUXRYNquWArEKgUsI4vVkbf9thSIIgpYRhZFg2m7YikQqxSwjCxWR97221IgiihgGVkUDabtiqVArFLAMrJYHXnbb0uBKKKAZWRRNJi2K5YCsUoBy8hideRtvy0FoogClpFF0WDarlgKxCoFLCOL1ZG3/bYUiCIKWEYWRYNpu2IpEKsUsIwsVkfe9ttSIIooYBlZFA2m7YqlQKxSwDKyWB15229LgSiigGVkUTSYtiuWArFKAcvIYnXkbb8tBaKIApaRRdFg2q5YCsQqBSwji9WRt/22FIgiClhGFkWDabtiKRCrFLCMLFZH3vbbUiCKKGAZWRQNpu2KpUCsUsAyslgdedtvS4EoooBlZFE0mLYrlgKxSgHLyGJ15G2/LQWiiAKWkUXRYNquWArEKgUsI4vVkbf9thSIIgpYRhZFg2m7YikQqxSwjCxWR97221IgiihgGVkUDabtiqVArFLAMrJYHXnbb0uBKKKAZWRRNJi2K5YCsUoBy8hideRtvy0FoogClpFF0WDarlgKxCoFLCOL1ZG3/bYUiCIKWEYWRYNpu2IpEKsUsIwsVkfe9ttSIIooYBlZFA1mzHflyJH/nunc/+7iVd59f0XMEyNyCfDKa28yRoNGTz558mRKYWkZWUpR0taTyhSAi7XtOeSTL1fnuCZ7iSIFUxkb23xgChR/oOBFF17w2psLh42bklK8zDKywPS2b9IOBY78d1S4GF/IxGG9M190YdrBPeYwvTnndaMGPEu3p89dMHz81BThZRn69OkTc4S0HY4uCvx39Gj7XkNWfrGabr00vM8duW6Krv5FYW9yXHPVldmyrvhs1bcbfkCULlwgbzI7aSWyZBLQFk99Cox7edbHn38DHl3bNC5wz52pj5DFwAcFnqjwML8AvjLrrfeXf+ajRDAQy8iCUce+i3wKfPHNt3wJ4Jnr5pzVHysb+QhbDJUCrZvUQRXAY68hL/z+59+aH0bCMrIwiGaLRAoFdu/d92z/kYJN93ZNMmTIECmYWTx8UOCyLJe0b1YfwIP/Huo+cMyJEyd8FPIGsYzMmy42N/IpgJK499Bxu3bvBdWKZUrce3fuyMc5CjBEI/nzr7+nVEeqVngIUZraVq39burrb4ddrWVkYZPOFkxlCiz58NOPPvlKkGjbtG4qYxMbzW/bvuPhak9XqN387cXLUqTHCNGI0lLVyBenU3941VpGFh7dbKlUpsDx48fHTJ4hSHRs/tSVV1yeygjFRvPvLf9MRODjx8PfBjpIhShdoUxxyZwwbY7jrc9Hy8h8EsqCRRYFFi1b+etvf4JT9mxZaz1ePrKQi15s7st3N1ZgT1Qs80jJIinYy7ZN4gXqRR98/OPW7WHUbBlZGESzRVKZAseOHR8/5XVB4vHyD2XKlDGVEYqZ5vPdffvb08b07vhMypocsxqVeCDeGWPC1NlhkNMysjCIZoukMgUWLl0h4hh4lC1VNJWxsc2nBAUqPlJCqsGmbOPmn0Kt0jKyUClm4VOZAhxWTnw1XpOSO9dNN92QI5URio3mcQL7eu2GLdt+OXEixTy9TcoVK5RfH6ecMgzURz8Jy8j8UMnCRBAFvt+0RcWxKuVKRxBm0YvKrDcXlXny6QZtelSu37r5s/0x+0rxvp5//nlVHo0fzcXLPjlw8N+QmrCMLCRyWeDUp8D7yz9XJB4qXljTkZM4dPgwoR34GiMHpeRgMnHanIGjJ1V4uPj0cYOo59Ov1ixd4eFRRH9xAk8Ojyv/UDHFc8VnX2vaT8IyMj9UsjCRQgH2NWrBVPT+e7NlvSxSMEvAA1GiYZueBNtatvKLhLw0/P/7H7aMe2VWy0a1OrVokPfO28SjaPNP291dgrsNfeGVei277dt/wP3WTw5+spdflkUgFy372E8RhbGMTElhE2mAAuu+/0HsmMDVXMAjBHX4bI9BY7/73498kD3aN40QrJKDxtiXXyO+21M1KlPJ9h1/iMDFIaO7zl4dn6HXm7Zsa9tjCNb/boAkczCOfaxsSQEjCgD+Z0kWUYCzzcj+2b0HFJG9FQObSCsUwOjhy9Xrt+9IMfeUMDpuhkm46/ZbwqjhjBZ58dU5IoiNHtDl0ksuPqNtnZ3KWS2G9+l43rmZaG7t+o3S6L157nC3Tn/HDuxGPs5G/YZPCC/KGEKf1qxuG5oTJHFWGRmb7RKVG7ToMqBklYacgARBy76KNApwIl60Yt3G7XqVr9WcHURqoffxF3HheuTn+hxXJyQj4j8sTKzb2jWte89dt0cETslGApv7O2+LXzC+Wfe91Hf7LTd6VpznjlzsQHn1zpKPXnx1ridM8Mxbb7pBAYhroukkE2fPknD/gYNstgUhBNRZby1K3dBR6DI2/fTzJZkvuuXG65MkkwWY+ca7qsdFp/t03ScIXXCWyQICP//ymzSKZWb69GEuw3/8tXP5Z6u2/rxj63bOP+Oix+DwdPToMRLY1koIjeuuueru3LfmvvWmXDffcO3V2ZPsKXYJbKkA42N+qkaVJOHTIsBnq9aCNqrJjBkDRhmpW63i8k9XIZTxsZcsct9tt+QMqac5DFKv37jZf9mzx8gcO14G3j+WZwJy3febmnbsW6xw/nGDe5yJ+qOsTseO8o8/d559Rrb5p5+VqrlvvVnTPhNwq0+/Wjt3Pv6Cq5IsAsck/L+AlSx6X5dWjYhpGqTUS9PfkLeNa1dNnz5dEMhIe/XvocOvzpn/2x9/1ahc7o7bAlJ1x+9//vn3PyCPl1KQLqRLl65hrSowMmDGTZk15rmuQYDdr1icWKLWrP8fr1hkODe45OLMbjB3TphrmruiJHOuvjIb5osKVrxwAU2nSiLVOWmq9DrsRh8qlmjogE73xuuvDbuqsAv+78etWvb2W713NwpgJtDXzH5nSamqjVBr+OFiZlnSKGseqd40SJCZv3b+g5MgkGjBWRodxSP88fkJU5Ge3lq0bEhQjcHqBAVZ/rweCjKzjw8UzHfDddeQA9049zBf+UnfnTuXgv2wZZumgyfOnkSG0A57Zj7BQQrec1etxx8NjtmZfuufRmcakzRRf50nKl54wflsLq7Onq165bKYL559tDduSvRcYcfnEwG2Ar0Gv6D8i7lXuGDeHFdf1bnf81rDc91aZ892xR9//s2uk80mR2/uL/D5CdOyZb28/MOJtk5a/I0FSyXdqHbVtBXcESl14dI4FswPahZJeP7lnEfy2W57AmgmAmnDmlUIFUcOLHLC0J76yk8il6EmY8QZLz+lzh4jA5urrryizdN1/KB1pmFYotd+Fye+2h+fFGB2EvOAX5/wZwKMiyq02ptvuE7TQRLsTWo16yyeAGwIOIC7/tq4IwIuvDBL4bHs2MJ88+2G0ZNmyB5HIfuPmFimxAMOH3WqYmsmMBUTwtFokQhPbNy8VVWfd9+RKAq50V556pgFedPRfTckOY+WfpATIWpme/7Tz7+G5EYmcRal2g0/bPGs352Z3p0VCzlLV3yuauNY6G8U9PHw4SOqDWDn4kckJHRy1+dGqT/Ti8N6CxeDGn/ujFP3yA87ZQcXIz9/3jtffWHQsN4dEqDi/vNl8lmaOaSZS8ILityXL2VjQjgaOhOPX62Jl7OoPH+egCF20ZCK+d799+bxgwajo5KU2YSfsqbWArNBP0WAiUVGhnbzuVEv+SSQBYsQCpgchCNFP1gtW/ml3K4EcNP6T152aeIxq/JEXgWxRyO0xtN1njDbQudtPpKe/95HkpMvDZpcrFoTp5WXHzWzSMhI/L86wfBC2VPiuwCpfAlsUc46A0B5ZMMEWVrkBYuQCoweoEZWRuA4sEAC37vvwJ59+/lFVH7mqerYKG/cvAVrLyrFSk2XMqNsXJKzvy++Wff1qUMKBEhMGQA2jUEEnuGn/n0HDuzbf1DauuLySx8rV8pRmz76rFbhSWBkyzb+i6+/3bQl7mwr+5VZ2cmyAXm4eOHzzjtXISFNt4Gj1Dr80KEjcgAvAOnTpaOUAmsC2xGO55W+mh8Jib//2b1z1+59+w7s3X9gz964Ecx+xeVCWwYRAwPUPdt+2ZHzumvvz5/H4dPDSgu5tmzdjmYHIwMMDjDjdnSKsAe//vYHA7d3//69p+qHGvWerKRSDIYsTCEyaVpmEUtFy4Y1pZ6/du7a8MOPP/y4DRXbTTmv40sQ60pHK0k+7jLsvC/OfGGS8AC899GnAoa9eJO6p/Ej8NEazL2MZmqi0iMlJs2IP5Ek0zEHEPo+/zre3CnvXYnGnFo8khMoyPRk9v577zaFXHQva777X6aMGZkSdOGTL9fwF/8k/6rJvAkbVVT+NBSS6vDizBfpF8qsFr+o4JTMiKqPnb8DCEVAw7Y9tS7e4mzVtF41E4zJ2nf4BDmskXwdUSCb1Kt2bqY4a2D5qdqwnYOzMiE8GVlI1SZUH8dPn+0/QjcRmk9i2PgpQ3q2K5Q/L191kw69VWcpMJwTP/JkExN+/Yq3zEfShBJ/5bU3SYBwtzZP80E6AFL3sefgsfjxmjigyADVGW+8+8LLrznIjvTBRdxZLsmMChwtxrvvrzALkuYMvkvrRua0Q1uEnYoD7PEKDysjmzP/vZETX3UAwMhYBbsMGCln9vo2e7asA7u3CX6Er8Bm4l8j4gIT3XwVKI08lfP6azkfp9eYBZhgG4zTNPe6a0JqN8nki7rr9rgPW3+2G9dw3JEroO2CwpuJuM3yz78gG+L6c+1VV955280EXzUpbwKnVJr1nsXmxMmTVGgKuawxSBvpTpnmZb00y5jJM0Xx9/6cl/746x9ZEpo3qOEfvdwGNVB1YV7nvwsXGxfFH/QXBiPjiZMn3A0wceFiaED1rIdPgshn12TPJsCQoHX3QaJmYkHjkOLWm66Hu/PNA4BR76q1G6aMHqAGNY7Pyd1ieNVSiqVj0ox5YyfPlBqYspypIT8ePvJf+15DaZeOYKm4ZPaLF11wgYOLBULDzMd2SbgYme8s/hCLbblV1IRJ3bT7Ei3iqQ8bN4WJyIeH6JT18ku/Wr1emB3SWd/h45vVfxLnXojDl8PXzoKJokd2W6+/vfiiiy7Q0MN0zV2/o78nvQJULfnwk059444FYam33nj995t+kjUPvta626A3p47WueSoLdDjvgMH9VXmC31JZA8VK8SvljITYugkOaZSxoSR9Jrv4v1yeMSgzGELirJcwFDbmSzPXY8jhw0X+jtTVgCA8ZoxfvAZtdBu3K43q74DGR4J1MOv5D/bqtG8d+PPYZHL5OPiMnBOrt0FA+Ww3sMZOP8F4H+bt4bEyNBZarUHDh7SdJBERiI6lSp637ZffmPaKVmZbQhlQ3q2z1c6USD/ZccfMvlYzDkJEt6E9RoGpbJCgveN1+eAwdEem+olH33C4YW0/fH8aYcOHV69biODFwibMKqlqjcXfqBcjKjHvTo0k0WD+z6Ve5LgjBK+DBrSerFK9SUB/qMNmz3Hug2Mw7yYeiKNkT3ftxN7OvjUcyPjFX+k+WUTN6RXe9lLstJw/6OwEngWv3SNTARtOYTCjLNM9SYyAV6e+Wazek/qRgP97nuzX2SGcIuqQ7wSGtauWh6jBNY2WTkkk+mE0D1+SA/VvNyX764+w8bzluHAKjXU8+sDBiO78NStrtJQGH/Z7ercoPiN1wWziTNVPHWeqOBoTm10Q+LLrPRIBlQF58IfG3N29AMz570LeVt1Gzh38ogzd2jgycUcncqf547K5UrNnLeQ/Gf7jeBv4zpVG9V6XOUSB3ygx6uuzCqMbPeevYFgPPPN7h/8919PGEdmevRHV16RFVG/7unsFq7M4vNoQoQgJqXeGzhx6hydBwO6tjblfJYsNtvSxogJ08Ttg0fOhTCMxm8L/wYHBvoYRrUIw/JtUAlzosMz9VX0Pf+80wyd2NEIGmBimqSDvOTIX7ejb9H78ymGJAKt8CbMWU7TBZTfbAlNe2PG6/l+nUyN2FM1HjMRY/vJFWp6lM40gK8pgGnoAAxj90DBe6qeuuBeYTQBy0OxCED1yuU0k8TIfp2Vi/FYoUwJxkgARDw0gZNMo4lTGJ86MoV3JOTrkkx0gsqyHWA8wqfmvPOe5DeoWdnsjmSiN5SEf3EMViJcDHF46dxJSMd8F9UqlZHBQj2y7OMzGP/ns4UzWM4/fmcae0bBnL98s3GZCb9MpHbN6k8e0Ren0T6dmoMkq47JXLRg8ESWi+MFK/RcwSEdb82t5f4DiePuADMfE+3ILjXOdFCOyv1a/Tq3KFmkIHhwaYpMejYgBI2TKui/+xCgUtmSsoNjeUGXzGiZ7elUNjNJh1eteXkUtDYnE0dUrRrXFmGt5uOPJmnF58BHH+HyQ3t1mPL6WyjvuAX2wcCMWIukVsLccLVoUNPk16DkOOnr1LyBQ/w0fbARENy9cKwNbgBTe8iEccRIQMfPJk4MTT0lO3eFZo65tURLYL4KNc1OR4sEUWxxytF90BiBZOfICZiW0gT6JkmjdtTM4IlRp9QvwHCLnQoBMC81wQ0kb/I1YbUb3lGJoqQtanO8KlzgHsdsoRWOhvjVgmEkLrk4XpX5z6lLlP3XcJGhIztwMFGlEKSGREZmAt2eYLzLQu243MGUtD0t6G698QatasfvfzkYmUpMCiOJMKpFd/PBqS2S1MAe3lEnB1XselCihbGYmFWVK12UXzMnMtOm5F+ogHMK4gytaCOfogXXR0lkSJ8IgNbM8ZZHh3rIDWAi4Mnx1c3bYY/qrsqdw6moZgb61BUgeIJg2QpQIIDhOF5H7XoOFV8CpLZXRvW/4HyPQx6VE81FVCt3JyCsquf+2bVHAQ7/95+mkW01rQl0MpzMoL2Z98pIzUxOgjMcLe5YcjQ/mQlVde3dFy+3+qzQ/GD3G5J4kOLejCyIz7p50jF5xjyTHNKMbid5dBvdBEIljGrRH+sOl2o9zSYCCYCB0EjT+com6IVD/iJHDqSkg56+wekzJGFUmDGj92xRoqVPl1gDIozmayJDUk0opDuB1Y5mJnNYNRwNFRa5z8k1ONfjDvNRL00XjSG8Y9zg7oEuANZP9JLMviQy1HPai0FjJiNmwrawWypXqihaXb4dfCfcvUN9LOfL/x46xMLsEKW1wpASpp2q53wIqTZPYOVHngK+ZxHJNClgLmBBinhPTYecaZbfsm27+ejw4TBfkVYVjOabi7ZmkgijWiRtrYGeB9F0KFh0J0xG5p7rGYygN9gHuUmR0eAyJ8856QZIMiedEfXBREYLZszg0a6+DZ7AeiY4gM+3sCc91ILbim4ELvnzr78T1YcN1/wlH+kCid6wecOaQXZzx0/EH/oHmtgOrK64/DLNoRWJ7IZCExsRFOpuRY0Ao7plq46Q2L5ZfffIaoX+E8TIVFNhFERBOui/TjekbgI8BXw3vGeOz3EPeWKZzJV7OvU0wBMJ/wQKo9qj/x3VRq8IN3a7TzJpQ5GcCD7FTTsqT8h055xmaeXuqVmD+y05mBNrvmcTPr92rcRMmHs33dCZAD7T3xpeL7APDhA5QnXr7DjOxgYlyT1X1ssulXZ97oBY2jnvUjNUKQtjJfgEv8SVLfXg/e6OQEy8RN35YeeYcUSSqQgLgoMK0brHDAJsvjLH11T8mzCOtDcjC6TJojBisNqdHj123NTvOqr2fAz0tYRRbaZT4XellZ1eymlPBByZCOqas237js+/WXdzzhxhmGtqJamYCM4mPDnLadgabOi0/ISHJGswAUwBMKGCZP03J7TP7YZnxBBEbAAAEPtJREFUe0uNS5jU2duE5DwXQQxfSzMzUFr3LvrRBoLU/P5dWtVo0tHNOgHoNnD0e7Nf8n9uoHWGmlCXIwpibOGnODtuGK6fGJNam57PBI+rofCaMMc3sz8vjkSlhtZCIogu4xZDlx+qeYjZhCMdRrWmixxSOqeKjjr9PB47dkzBMG4cOOolc6LrqzSRONPSpcn0PQliApjbTE/gUDPNCW1O9JDqwZh+wfvLHUXQS2CuiREiFnlYJ2AX6ZOLUY/6b+rxpaNy9yPOeW+8MhLLBpzMHW+ZxouWrXRkUjPGjEmaJTtKBX/8cvU6BXDblOgrTbDjJjx92RrN1EJeXwVJqNVFqKzZXBUuvsiXF4e3RBYEuTx3JLpoYA2E14InMBoHjhQfuO8en3YPYVSLQoHtvRrr42XpKZazknDjHspaTxM28+MXxZDnF4is+99/R9FleHY2QjJNPuJGKfjbOHhDODWS7poC5pz2sSVKugHhQ3phrurm1iOkSj43wsCjFRnYrTXaItMVN6TaAL40S4KpVFIHc+iJ2DxiVc7pwaMPPdiw1uP8ksnyOfSFl1XXvGt34lEmk5OohyI2MvfYeAa5CoCP/7xzz/XTFxpVBVmc66vhiQzD+vPvnUUK5nNonBcvWyl6Q1YC/yRSfmSqBfwUN1cFtRcJXjBRIjuZoLakwInjHn5LUhH28epXjGmf+LW42xg0ehLnPnjGOF4F0iKHV23VCmW0fnxrNG0mmD3EeBMzZc3XY5FjxxMlMnwPADjfGFeBx++q8KO1i1d+qsfgseHJfdruGU2Y0mUYDZlD48n1kuRux4xpc8zLgMNcNkLFMLOxMpsTPaR6zEuYmHKoUMzPOKSqBFgtqE0lr2c9L7wyC99kQrHif7r2u/joNCDAxmLyyH46IU3Hz4nTZsPFME3HzYZtHWU9a4at47ZRpELdAmWqu51e3UXUrYpXiAIKgJzL5TL48/1pHK3K22KF8mNHhUkwIRgUPsmE2pcQsCBJYBNAzYzJzHyRL5vBREaW5CyUliB9u6b1tFW8MrnhTR8l8eHKL8V0u/zDxR2v9NFxcBZetThX6QzAZX3WW05ehk2j3ObisMjXrT6xH/TrEpzNcyWwdfhasjRpFyItoR3xRMx863ntoAlwmmyVUN1JL7fchJdx/8210POgSs/4ZHk3yyaZNldmVb4kWcoEQJowneTdpnYmsM+0mkmypAeRVqAGvnRa59//JBphkGnqE+9JCKGB29mEqbOxwcYvClELMO7K1RrMBNxZYzfA7FS4M2HMtBnk6567c+sryjIuOOfc4LqeigOBt6eN4cyU71ThgycwJVF3KNPnJHgpebtrzz4FUxsOzfFMpIcN0R6i5mLjal/iGXAXE/nYtriLsT5wVCz56Cyf6dyfoCg69dnrobPkbYuGNVEHuIsHygmjWpZTXNN1x4eGC9M2/UpZt1s825+lDGH+sbKlzHaLJqgnGLm3FsXNMDoiHogOA2CHryU+tGY9kZDmjAIPUKJimXaeBJgn+ATxc5Ct2C98+c06dX0HZzyQiHpCKb4W1mH6yDma+gkDsOD9FUwJJgDU27krboZwhb3GRAbgzXeX8sGIVRR/Afjo06+WffKlEuSNd5di5EzTbO0xEkS7DIY/GEH3kTXA0L+loa5YNKF7Fm3OT0KjswDMcaTq6f2UDQRzpxEMwzwKdMATKgpKSiYdKZjvLhOAK1GEs/PB40kir4TnclsVmwDR6xVymXwLpFrYyuP6jZvMyt1p0w1bFc1MAL4dgE0xxV3Wf86mn7YpsBm9WjODJEwdqDnuQYpk5OtVZ2OFU1d4TMA/eGOy5muiVaParBJyvRvWz080akd7mKSee24mMYZmJWlSt5rCa8Jc9jVTE2FUy9jPfml4iy7PiQMd4Yn5jTONOe/cb779nvnBlB07sKvDKr1OtYrcHiCzB29NLtaRcxxUsA7Tx8j3tRw4epL5iQoxCTAviW8+mFOzaSelsCT4qNjgkMZjoXK50u4oPVBDCIKFDQvDoNHOOYCcyy/EnzPp+QXvLUeN4GiCSCH8kvnaxKHDx0+V2kwY4nPwyLT5YnGc+3SSP+rvAuQeIzZZkgUVYElCeDJycIrW/OQkMDBScwq4eSAdFjfvaCs4CZg89IOPv2jXc4i8HdCllYKhg8c3DqculSKJjKZvzQS3rikM+aafrAmmaVO2FcGZi0U69hkOAMKHIxYICyEeXdmuuDwkoYSq1n2/WVpkkoS6f1emTw0+9Wvxyn4Raszt3tFjx/Aj4a9g4/jLST/OrhglT545Ty4EhimIvoyp2a5ZPUJEeFoD6PbEbStLE+FVCwOdNva50S/NUDWZnACACUdRRBBz0xEH3SljBqA7E7Yrn1npBwvVrlrB0VP1tWSVqFyW44SATu+OgmftUWRvRtA9fOAg2xZIAREcAEyX//6LH99AADgDZfwvbjdhAsisOFU8zpRPHIY8EWBWYKAjao5AAD4JhYGOQiJIatpngn2f7r8oUtrLXMtnVQ4wfOPELozgLgRNcryVR9ZRIpFIJInqTTpipIYXoMjCGnJ91IBn2TpocWAkLXtSqFcggEUIjIwzNyY/H6x+hlqPO1Hh4WIvz5wn9h8o1wAQ/EGej9qEZ6fVtudgMbfCs31Q97bm2+BppHEB4K7y4JCOt+YOnV6bbNcBaT6m81TrmhBJppHzUR/+vXMXo8VJIhPOceRh1gDjlyBtnBgsnjXRfOVIh1StlIUEYMJFODzmJghWjms8mak2xHZ46/Ydu/fsQ+iAG5qfisLYRORQoFzNZmrD+O1H8zydBwJhi962TY/B8jbUbzJQnZLPHexPNu5AGl7/yYLpDtnfLIsyC1N+twVZlUdLY7nm9n6lLP2l1yRwWQ9kIaBNoESDS7JbnPXiMM30TMBl+BJNTPBgh5GZloBoDCrVbUlIWMKQdegdV+Gcyc/7NEJA0OPyPRGsVi54VY9EPJFxZBJtmMv3JBN1EzYxDgDPx5DNL9y1IPuZZx9uADOH0255TFJrGFK1UicMVNcxs9FAab4EVdYGgrH5kUOBPHfcpoyMFSikseNWXu1IykaUu/2WG+EdaAORhj74+HOHjlUbJcFnyS+HjCgNseY5fOQI98tdn+MqT3d0Kbhw6QpJcG4Gd5j37gdFC90bKPaZbCrBx2zUM80WGJXRj1u3EymXoPCEAHHv4F5/azE96tu5pS4YW7b+4pORoWAVLobraEhcDGzxoVacg8QmURhJJJ5aOl4k/5H9Xb2WXbFaMEOeq5o2VJeA5ONja0jrFCAYtHaBcwxNJ5mAd+i+klM5//auSdYMAFIMAaMEctrsd5IsgioA+9sC99yJco3oDEG4GArluQvep0KWZ04S4Q5Epd+//2CgJr4+FdCieJGCgQAc+YSiJX4vUeDdXAyBg2hdaLpRmenVB3nuzOWoIdDj1AQ6ECYvEEygfPN4Df1aIDBH/pliZOxY+wwbx8EWjHnMpJnoQWmYrZ+esLDxc6BiHy0FglPAvF08SZW2WdXmn7bzyNaPHdyIvp3NVymSRlksWwHkMtUNJb9mvMRl91epbCk+KLgDAl2gyDTscMVKzv/2KAiGNEeAvxYNa8BM57yzBEgOzQL5tDvqYY0RpTNFAmHrKGI+rln/vT6aVnWa6Zk4U4wMRabuAmhY7nqQFUPwqFrhIU+EbKalQCAKmLpwjqQDgbnzudlr4WvjP313OsdQQXRY7oL+cwgaLsCe/pv+6zEh8UiH+ZLDpnLAyBfhDm2a1DEBNM2xXNcBo3hEAgoi4il8kgnO4ghHirklbEWY6eOPlk6ylAC8OmeBJJ556rSjAz/F0VarHRyafjPEcfDiZ4qRIayqAwAYwJvBT454eSQmSRp1zA5OTfv2jFIAbQv2QNIER+T+HZU480GaSFItmxzkmc/EVaYG7JlM/4Hk1Ak3wR6CGgaMeJGI21hjBJKJJkx9HYJAHMKXJ6dFd9l3lnwkmaUDXOPiKIINg+zi2W6zaXW8TfJR70AAMt9duZOEV4AzxchooE/H5toMhmboy9AdkoOP2+Ae7fSVTVgK+KeA6WhtGgD7r+HMQfbq+IzcX8stLeZ2JDkt1q1W8fNFM2dOGII3e6AwxeizuC+GVvisRIJLTotmWT5YPPzIQVmGao+Nc3AejXmz3C7EFpjrbMyqfKZpQiHz5/UVlkPgzyAjw61hwfQXqj9Wlh0B9EVvBzmmjxvELZNnSLxXEthEtFIAWV679t3GeJNLzUndBBe5juz/LMEa+f479R2uHibJxEoOB4KYU/E1TR0zYNKIPhwgJLMtR/EPE1w1KpUtgdYMu8tFH6x0wOgj/WXLRd85TSZUUXDLJy3lSHyb4IVKvsOt0AHpeEwB8wtHjeYjpjE92sebhJj5Nm0pEB4F2MGxKIpor8qU8Ko6E6WIVzNhaM86zbsgWYx7eRYquTPRirvOlD2H1frl4AJdFZLmV2u+w3lmUPc2+taR4FIVes3ovDCoe9g2CRqAm8OTqxNu0XU05Pl4BiUyz/ZspqVAciiA9ME1XVIDJ+ApJfUkByVHWW5LmDVxKGYNnrcWOIAj/FGiBMKVWDPadB+En4x53uJAnjCwaAnfeHmkqRx3wAR/xCNVbXSDxJvwrCQFLPs967WZlgJniAIc3tVv1V0qx+9HL4E+Q83FcrW4giFdihMVQhkb51BDJIZEPXy3J06bI0U+fPMV/0eWFDmzW8uQumGBLQX8UACrdDY7Yjg+fc58y8j8EC08GI6J350xDj8EFGQYfoan9vLZNI6i0+fG221gChcSF6MJu7X0SWcLFikUwGOmWf3qgg1KGbG1jhTkohEPfJDR359RLgbZ3lv+qag+ST9Vo3KohLSMLFSKWfjUpwDGmQhlgsestxalPkIWg2RTYNrs+VIHjqumkY3Pii0j80koCxZBFCAkUctTlqLgRCgu89bbCMLSouKbAgREk3iClMCS1gzC4bMOy8h8EsqCRRYFOBZUK38zinRkYWmx8UeB1+YtFECsLnBc9VfoNCjLyE4jh31IKxTA+rRlozj3HX6I642zoaTt3zRHAeLpa4CNFg3ixzTUXlhGFirFLHykUKDSIyXFJQgl8etWUxYpwxIyHmpygZQd9rXnlpGFTHdbIEIowPHlwO5txLuQawECXTIUIdhaNDwpgPOmaAYwo+3SqpEnjJ9My8j8UMnCRCgFCFDe79mWglyHPsP0/D5C0bVonU4BnMxxsJe8IT3by+0Tp4P4fbKMzC+lLFxkUoBAC8S8BzcCTnAtdGQiabFyU4CgHZ37jZC1hyCORM11w/jPsYzMP60sZIRSgLu4JSYywbPMyzcjFF2L1ikKjJ/yuhgzE3ycO8yTSRXra5lMAtriEUEBvAIbte0ltkgEgw0UgDAicLVInHMON0Y3bt8bSsDFhvfpyBl0MqliJbJkEtAWjwgK4BU4eWRfic3A9ZFHjx6LCLQsEl4U+Puf3Z37j+BNiQcKpggXoyrLyLwobfPSIAW4vnvyiL54BeKAKTfOpsFOxATK0+fOx+e/WOH8w/t2Sr4sJiSzW8uYmDqx00lu6mKbiSdmSn0hsUO6s9ZTAl3EjdGlWbiUIKUatYwspShp67EUsBRINQrYrWWqkd42bClgKZBSFLCMLKUoaeuxFLAUSDUKWEaWaqS3DVsKWAqkFAUsI0spStp6LAUsBVKNApaRpRrpbcOWApYCKUUBy8hSipK2HksBS4FUo4BlZKlGetuwpYClQEpRwDKylKKkrcdSwFIg1ShgGVmqkd42bClgKZBSFLCMLKUoaeuxFLAUSDUK/B+kkemtJHKWswAAAABJRU5ErkJggg==;" vertex="1" parent="1">
          <mxGeometry x="143.53999999999994" y="701" width="183.78" height="100" as="geometry" />
        </mxCell>
        <mxCell id="DwbIfkqpnQ7Z0dvdBgJN-6" value="" style="shape=image;verticalLabelPosition=bottom;labelBackgroundColor=default;verticalAlign=top;aspect=fixed;imageAspect=0;image=data:image/png,iVBORw0KGgoAAAANSUhEUgAAACAAAADsCAIAAACaMjNsAAAAAXNSR0IArs4c6QAAAERlWElmTU0AKgAAAAgAAYdpAAQAAAABAAAAGgAAAAAAA6ABAAMAAAABAAEAAKACAAQAAAABAAAAIKADAAQAAAABAAAA7AAAAACAY2cpAAAOF0lEQVR4Ae1ceXzNxxaXCBH7Uk0tRcUSS5AQtGopamkIr1RRqfa1hLZP7d5rqtJGa22LWkrtfaHRoqqJLWgtrX0nqC1EbEUkIhJZ3vc6N+fOnd9yf7+r/nif/u4nn1/OnDlzzsyZ/cyc8cjLyyvwOH+ej5O5jfejCriXcX/b7/tzcnI0MwoVuffLzMqKi98e8to79Vt1v5VyR4uJl6ZkjYi76femzFp0/mLS6bOJ6fcyNKgcaNMqupOatmHrzgcPskM7vVC5oq+DkwZkugSVKvjuWreMuH38IPuH5I0anO1o0yXQZ6eMtQQodSJhHruKNFvRyp837T98ok2L4A5tnpMypRLUHs/UBazbvCNyymwwWrvxl70bvitSxFuFqYBCNxZCTqC6itZt2c5UhQsXYlgLyCtgRkB2ds7WHXuIV7OgAE9P9UyIwrQLoDaanjh9lhMHBwYwrAOYUxHqlnk1aViXYfcAleIfOOIQUN+/phG+OiWwtSJMFzdu3rYN6Ajk5e09dIyY1qlVHXjPgrZMFC/qU7JEcQC5ublfLViWm5uXcid1VWw8UQ4bO6lRfX80hw6tn0MqQtLXA2xnLlw+d8kKEauE27VsPm38GOCRm0ZtexYr6kM0mBLKlimVmZmFIOBR7775eq9QMbmtBOcTk0SUKly7RjXCFyxY8Oivq1VpVJG2Ety/n5mRmYmmnJOb+37EhCMnThPp5pULChWy98QSxYp5eRVUZaGPtKVHR6W+ih7A3J9t0vDJJ8rqJzYS69SKEv44x2maGusBTK8FOAkQG2jjhvW00pjCOwnYc/AoJ65b24/hRwEcAtD+sIQiXhiCvA2McegT5y9epv6jlQmHgIQ/zjNR06AGDGsBWNNh1RUa9t6M+dFaNMA7BIgVYGQI2r3/SFLyNbCgXqYlw97MEb37wBEmqle7BsPJV68fO3mmYb3avuXLMRJAPX+/BnVrVfAt/0bvbiJehqFB/LKzs7HEpL83h3xISPoiCPzquHgRaRy2q+j0uUSWHBxYn+Edew5i7MNo0/GFFow0BdgFZGTc52QBdWsRfPX6nyPHTQE8dGCYT5EiTADgUvJVtB8RowXb66B4saJMkZaWDvjylWsjI6digESTDe3YhmNT0+4O/2jy7gO2HlPLr9qi6VE0jDOBBBSMjIwEqlzZ0liOY1EOGOo6deZCxIQZ1/+8FRjgP2vSWO/ChSkZpoHwUZ+cS0wa/58h+w4fRytCzQfUsZeYaKSvo5mOGzUYrQLRiZeSaSbp2bXD7Elji/o4lLNr/2G0ZmisfatniRGyInGUgnYVAVumVMnoOZOQa2TNp4i3f41n0AQlaghGlru82PrQ8ZO3bt9BbFBAHYlGCjoEUASG6JfatZSIONi1Q5vXenTBJLF2wy+EbNeqOceqArIAVSJGtn6uCeCM+/d/WGvbd3Tr9ILYOphMBBx1IGL14a079xIBCqRPiVh3BPwYtxkp0fvQJa//eTNmzXqdbaxpAcnXbvy+7zAE9ArtiFXlkpifvvx6qbmlo36pDx87RQSd27VEp1u64qdhg17XWQ+YLoFftcokICU1LXzkx9jJ9gh5USdPtmWLTrRq1JioL+PityEK1TBvaiQvmVSJ3REARhgHsaoE68KFCqnyZaSbAji9S8B0HbjkKBFYAiSFKIOWipQ6kTCWiiSFKIOWipQ6kTCPXUXmli1i7m6npJ65cDEjIxOTGv60JgZ3BGCynDpr0Zr1W1keLAtDw8N6dumgnJxNTzjYmvUaMALr13f/2aduLb+kK1dnfBNNRuyXQ9p/PPpdlmoHjO9ViHLyzIXY8Pyycy8nvHz1erNOfWh3hCUl4wkwXcmwjCNrY6K+uHj5CuWxom/5gWE9Cf7+4ZLSnveH/8wJyMx6cO3GTSSETnbsPsCMmjSy77qwuAcN4wGYE4DdeYumgZQ+UFi48w4FUXm5uaIA061o5oSIg8cSKlfwFXcPp87aN/FYKUlGVtMC0BCD8xXCOd2y3W4GfSW0IyMJMKciKTEF9x06vnn7LsDY/IT17CrRaJbAoO0668GDCTPmgyn62pzJY0uVtBkOnX5Ss6UgjpeoXeOLLbQqDZCwtmAzCppW3fqfPntBlUxdRQZt1/O+/WHNui0YiKJnT6pZvapTxvMDKgIM2q7BeuaCZbCSgjtkgCG2/0CiWPnMbf9VBBixXaOXfTjxq6AGdRdOi0LTJI4wqQMpclcX4NJ2ffzUmcGjo55vFjR3ykfiLhMGIRgXJGu9SisSLVNK2zX08NbQj5A1AG++/yEAWFtzcnJxgIdRpHO756US2AQYt13DVjFwRCQNzhixJV4IVq/6tIS0CZizZIWq7Trh9LnOfQZRArJdZ2VlkRlN4sJBv2pqAozbrjHOmDJcQ7BtRrNs11wDaoBTRxMbqGW7zleXQ0WW7TpfJ/J/moYs27WsF0fYPh+I84Zlu3aoxwY5pkzLdu2sGQ45xiJGuQQs27W+iizbtb5+ONayXbMqHh1wpyebkmoJcKkuS0WWilxqwCWB1YosFbnUgEuCv1UrunDxMm6Z3Um961ItIoFjfyBilfDXS1bMWrgceBhgZ02MMG7JMFQHuGtC3CEA9rRv/rtSmQMtjCEBdBGHWSQmqVjrOFYCDAnAjX2YSDml0sTOUUrA6CER7h2tjo2HwaRl86CQ9q2kQwIlX8YYFcAJzAKGVGSWqUhvCRC1oQpbKlJVi4j8/1eR0eE6MenK7EXfnTl/ES4hb/TubuTKMSnKqABcWT974RLS4LwMZ9bDwsNERevAhuoAR8fEnRjFbvpVh6MUZUjAk+XKsj8A0itPjiSmYtCQAAzOIwb3p2Q4EX27Xw+RhT5sYrjGZAlF1avtBxcEfaZirAkBYjLjsCEVGWenpLQEKHUiYSwVSQpRBv8+Kjp07GSf8FEBrf8xbvIsXGBSqkILY2iowEnVS30H81F17+6dI4YN1OIo4Q3VAU7XmTvSb/z1N4mLTtCQgKcrPcV3G8CrZfPGOhylKEMCMD6PGzGYbmfA5eHtvi9LXHSChuqA0uNKwt30dH2HDKUkEwKUiY1gDKnICCMtGkuAlmYYb6mIVaEFWCrS0gzjLRWxKrQAS0VammG8pSJWhRbwSCrCBT14RGmxJrzRnb7IZeKM+fHbdtEFbOC3r11aumQJkUCE3SlBUR8fWFKJC7bNOtxB404Jhgx4DXeJG7fvhfTNmzQU86uE3SkBuJw4dZZ4BbvyVXdTAL+nENjAhWepmwLgv40SYEVcpVIFpVpEjDsC4BRO7sMtgu0X7YkjTEnKVutOJeNSMXFkX2zchv4meiVd0sWjELhey4VwpwT78p/kCKzvjyU3XhvCbWi4/NJ93LUbnMxV7pRgz0N/eFQANiZRn89Zt2VHzLyp8Dglq5h0/d20AK6A+v414KCJ5rR87pRnqlSinSEMY3D5Zf0AUN8foJGs37LjKd/yA/r1kC5qHzia0P+9D4gF2K1ePJ09HVDDJYoVlc4uVEqA/d7bw8cRi6AGdSR3hv2Hj3MGYQPrHT6q78shb7zazdu7cPlyZTiKAZVK3rZrH0eLDuKE5B6wYv7naC04P8IV+0+nzeMkEqAiYOeeg0xUo1oVhgFgCKIegI1mnZrVv/hkND3dszpuM7ko40GKg0dPiklkAWDBj0pAOSi4SH0y/0UIGoI8PT0qV3yKCDw8POFXMOSDCb/tdeQPUbIAZoG4Zo3lRyUOHk0gdjwE4QwPmKpPV4QwONmjVjq1dbpfLwuATYJY4BvcSH7Vg4ovDkFtn28KyrS76XgRYuJXC+AzIF1/t7UinJFBg3kPGZN79kOwALbEeEuigIcHXMGeKFsayFspKfi+0rUDEeALNeKdBvgvwVSCcnz2wfscRYDH7/sODRgeKWGVQbpTf/N2SvLVG7DNSp0DvmlwuYJzFxQlpfWC3V5CKYMwHxCyXJnS+FMSlCldEn9KPDAeeLQsLd32vAOcQ5bG/LRw+Wqig1NNPf8aBPt421+OoaCprxdcj3DTlNLABY8TNw0K0PLCYxojgKMVoRVzD8C7Nn8Jd+TAIeBxvGvjJIA7EbBBj/yyE2vPUQKtZ1WYVAng6EXyn1PS2AWgo3EFGHzX5j+fTgvp+07fQaOVTEWMXYBZ34Dbd1J/3mibe+9lZMAmKXKUYPuE4+ScIaylcKIFtyfMvRicxZRYj2KEwFsSwwf19/CQe69IaRegVQHffr8W8wkevvgswmmQAdOpkSNFRlqwTUUoI1cARgWeVDEILnrYscNekR3xtNgp8TYBogcZX/lAvxsZOQXjO7IvPc2F2ydHE/4QUyn5MsamIvHYCm9cAEOPN2L0x9A/NLwfU2OZ9fmcxXgEAxhETR//b7wPxrGqgP3lmdKlSpCn6IVLyVh9RHw2Hc9hYVUSPXsi7zWQfs7imAXRq8b8661CXl7o+VgL4d0NVb6MtDfT3t1f6ta5LbDQybJVsfhiJsGKqlqVSkwKdhAAjfXr2aVE8WLA8y6BaVQA8gGhLzSzdeeedZu3nzpzXsQTHPPjejgw4uEctH3yeYRLo5JMwtiakMEffAXhTgni2PhtJACN22Vaez9QKZoChb5G3Y3fbWniav8EHvY6UHDTRPC7La926yTNzKppTAuI27SNGIW82BpD5Io1G3jD/BcIgMZXxm4CI3T4qpUroP9HffE1/BlVWRPSXAmQWTprCe3UFsIWx6zB2hS+mDoCTFQyuGDNgt6HXgLljP9yLsbg2GWzdbjboly2M4lg2ao4aqP4UquVCKSg+g5HP1Poj3jIquYzVag/6xO7I0CfoxRrrpKlxEaCj13A/wD92b8jzSM/BwAAAABJRU5ErkJggg==;" vertex="1" parent="1">
          <mxGeometry x="388.72" y="426.75" width="22.57" height="166.5" as="geometry" />
        </mxCell>
        <mxCell id="DwbIfkqpnQ7Z0dvdBgJN-7" value="" style="shape=image;verticalLabelPosition=bottom;labelBackgroundColor=default;verticalAlign=top;aspect=fixed;imageAspect=0;image=data:image/png,iVBORw0KGgoAAAANSUhEUgAAAMwAAAEkCAIAAADsIEn+AAAAAXNSR0IArs4c6QAAAERlWElmTU0AKgAAAAgAAYdpAAQAAAABAAAAGgAAAAAAA6ABAAMAAAABAAEAAKACAAQAAAABAAAAzKADAAQAAAABAAABJAAAAADOK+MhAAAiyUlEQVR4Ae1dB3hURdfeEIRQBOkthBZDD5BQAgQI0nsRaSIoH0UUpWoUFUITf6rYECkKHyggKChIlSa9BAgllNAhEHoJKUjC/25mOTu5e+9mw97st9k9++RZzsycKfed986cOTPseDx9+tTAH0YgIxHIkpGFc9mMgBEBJhnzIMMRYJJlOMRcAZOMOZDhCDDJMhxiroBJxhzIcASYZBkOMVfAJGMOZDgCTLIMh5gryKoKwaiJM/cdOvrCC8ZUT0/PrJ6e2bK9QJpJSclx8fE9OrXu3bU9RbLgPAg8eZKUNaun87RHhWRJSUl/btiaZhNv3bmbpg4rOBiBS1evfTt/yV+bttcJqPr1pFE5vLwc3ADV6jxU9y537T8cn5Dw+PGTfeERy1dvpJwh9WqF1K+VM0eOnDm8KlfwLZj/JUpyBiEuPmHhsj+ir9/o3rFVpfLlnKFJurRh78GIdZt3FC1SqH+vV7NksWbhvPfx51t37ReVTh49olWTYF0aYGchKiMZSqxXq7ooN/bRI4NEsi8+G5YrZw47q8y47NNm/bRs1XqUf/HKtQVfT8y4ihxZ8pXomH7Dx4gaA/wr1qpeRav2x//+SwyDTskSRbU0HRxv7bVAU/YfPkYNwgjszAzDLL9m43bR2jy5c1GzM7uwfc8BegRMICRbCtleeKFKBV8R36HVKyRbajo4Rn0kE43ATLp990FqEA1vFONUQuSZ84/i4kWTqlbyc6q22dOYnfsOUXbf0j4kqwpzZ4xDl/mWKfly2VKqCv+TSGskO3/pKnUbGldTe6D+nzRdUSmWwxQT6F+R5EwtYAak9xwTZfbs2aw/DqYaJ7HD5HZamy7Dj0bKqpX8nNqU3n/IPLNXLm+aNeT2Z0b55Jnz1Ow6gf4kZy7BGsnkbsO60qlcLwqUYZDt2BsuImE7enllVyhk0uDhYyep5bWqVyY5cwma0yUMsm3PFsN4pFo1NBc1SE1ISISnI/ZRXMWXy9aoWiHPi7kJhZu37544dTbyzDm4c72LFYFhlztXTkq1IoA3WCRGnb90/uKVJ0lJGEfr1qwmswdOlvsPYpNTjo+fu3iFiipbuuTVazEeKUv9Ai/lpSkmOfnplp17MTbAXgkK9KdGotlbd+6/duMmvEowlqtXqUBFkXAq6gKmYxgPpUsWb1y/NpVJCkJAUXBcy41UKFDw1p174REn8HSeWbKUKeVdtpR3udIlPTw8oHDj1h08uzgUv/vAEcqCBsM7Y/DwgIGvcB4B3j0HIhIfP0Y58DFBgXJZEQDgvvBjJ6OMg2UOr+zAxK9caUt9+ztX3U+GmmCQtX9jMFW55IcpWnMQmvnB2KlYaQvl/PnyLvrui5LFiwKsTyd9JcMEBRgN40IHNw+pRyWrCqDXR+Ono2RF6gfvvkXbDK8PCo04cVqhoAiOGtK/R+fWiATDRoZN2bhtNyn079Xl/f6v/7Zm05jJ31IkBJSPWigmOTl52qwFcL9RjHfxIgu/mVSoQD6KEcLMOYvmLloBedncaXjZFKkUhBEy5Zv5lo/WonH9CR+9d/j4yf7Dw0hZSzi67XdKonpFDJoH/Avks+bC3LbrwIo1G7fs2EeFCAFEn/TpULnxunSuZ1hYmKImEdz8z17Z6fLpsIGqbkC8DT3f/jDm5m1gBAJBiE9I3Lb7gE+JYn2HfoYBBpF9e3TC23/1+o37Dx7++++TDVt3gWTgomq9iIQrGGWCo5BBke4dWgbVrI73Ce8xkhoEBRYpVABJU779EaVpFSLi+3TviOET8pKV6xYsXSUac/DICcRgIPn7n70rUryAMAbaNmu0L8WqO3L8VMtXgvO9lEeUMHvhr4I6b/fpCjMcD/jg4aOHsY/wREJBfGNMCh03XcgBWNyqDQl37z8YM/kbNFs8Gqb1DqgpKODx43+vxdw8e+Hyg4ex2MIjS18uX5YxV3Rq3VTEoHnfL1gGeWDv1+7df3j33gM0LzY2DuOZnIXkxMTHk7+dP/mb+RcuXUUk2oCisFbAxIUXG9l//WMDvHHexY0+Nr06V3O6FIiLxqEPsINJDZWFpSvX3bl7HwufyaOHr9+y68Nx05CKUe3djyZAQMe88Vo7MTE1Dq7dpuc7Iu+Wnft8y6ivxgH0xxO/FGrL580o71tayFeirwun3dKVa6tWfBmRG3+dg2nU8NSQkJjYvOsAoQbUpoSNFDK+8+U1cgVc/H7BUgjjP3qvWaO667bsvHg5GsHTZy/ge9InQ9s0a/ifoaMhiw/eDcw7kDHqfDv/Fwhw7Qb4VwI5xNh5MMJIU/lDFiEiVR1U9x487DdsjKgRXJ/w8ftNGwZBGebEr38YHcj44K3+6P1+YpjHCLpw6R/zfzGNWLMmf4YtFqGWI7vJ4kRjvpn3MyIxsoJ50deNTEVw/5HjQlPxjTfkndAJog1I+mbSJ43q1RQ6r7ZtFjblO4zrCIaOn7Fh2Zzs2V7Qq3PVSWa7QbZy7WY0C68RxjlYEqLF4vvdvj1AMorB2AZwhU9ENqFIQQi//PYXWAu5b8/OxDBsydGElStnTqH54jOPqzz11K1ZXRBLLhYjK8osVbI4GIZHu3X7LqUOHfBG2+aN8FrLbmcYXkLhpyUrIWBiBcMgELdgeFEJQthzMEIIeEZUpEjFmzNgRBj17sJvPqehbu3f/5ClgRMJWF1R+6MuXKJyagdUtbS0Fi3/EwoAGQyDQPqWzUMq3rThoycTy+U2IBXm4JvdOwqSAatVazd37dBCr87NggosPwoPmYDYUg19g1cHsNZMWfjISyF054A3XpOzoHfJ6wZrV06S5YhIk5l1++49iscgT/IrDeqQLISD0our2lRhirVp2hD6l65ep2agp9/q0QmRmKSoTFBEjLKYwoTVIqy6M+cuivEPmoq9HUyj5DKtX7uGsN+pQAgTv5wTefqciBk28A1iGGIwh5Jmu+YhJOMkBc2bWPFYMuz6jVtr/94B/Z6d2+AbfUFV1FBbu3z5w3/JhB2aug2iUmFXCBldqWPnqo9ksFdEZeK74stl5CDJJ84YgQuuEyAm0z3hprcZ9hYmpixZjGsl+sijV+GCRqNK9YN1nIjHywTrtXH9WlUqvIz14MdD+mFh2KZZo9oW61zZDau6Ly5YKMyUiBOnqN7er7UTjcQyJfS9/6zZuK1QwfyD+/YQCiAZhIZ1A4WNv2n7HsrYtFFdkiFg+UxBS5f10cgzOBYhFGBZ9+nWgZQhdGjReF/4UUxkr7VrLtgsUrFgJLXaNaqSTIJxpWkwwJIR5uOaZ1UgEmMzqQkBszlNBXiLUJdCAUFxskvEn790RcfOVSeZ3G1AWcsgaxgU+MvsKb6lS6JlsFfoRYe1geFN8RjyfATTUpFKQYwiQFwE5//8G/4gw57r2bm1eGVJUwjyGw+DDJaEQgHB2VPHwG4Ti6bwCLOHuW6taqTcq0tb/FEQAqz3n7+fLBYZGIb/WL9FpBpH7mrG2ZM+YiUhgtUrl6d4Icz4fiHFdOvYSgFmaZ8Si2f9HymQcEjyhAekrk7oyM2DAbfsmWGHBteomqp50Id1RSV3adtM0QaRJF4qIcNS1LFzVUgGQGmgRpWqr5FoCjxeZOTKc2VgNRW34c69h0QufKv6okQqvDU09ZA+pi389ev16pD+vShSCMLNI2QtnzjGD8q156DJ84QX2sqACn24u8QKA/LxU2fJcurY6hVFJ8nvj1+5UlQXBFhjcmqTBqnWpLKmQt77bFpAvKrzSG4e3ObCkIUyRinFHAJvouwogB9AUZcInjhtHo+LFy2kY+eq2EYXLkeT1YLqVa0cy1YekAwjSw4Ba3pOGDRW/LFYjWLcsiwfMXAlHDisXDfJM3tginmumldEwo4hrqRrv192sLVoHCxXAYOa3gqyHEjh9NmLJKdJa9LEEorec63hmZQhrFpnGmUht25mND3lz9ad+ygIc7BYkUIUlIWIE2co6OOdau1iZ+eqkEzuNtQqu+aoEZbCP3sOikgM18UtHkP2+7VrEWKZnWIwSEwf+yHcknjhLH1pi5avJk0hpPnGy/qHjpp3aWqqDbeysiyThwJzZbXKfnKSbDxZ7vzIwwMmIDmjFRknSii1doA/yaoCthnoJDNGBNiXCrXT58xEx0ShSKXghq07SQ6uXYNkCHZ2rsp0KdMWr6YtW5YwyGiEwPJKbp+QZbP0lWDj8hALRiz7MSzToRS8u4eORWIB37lNUxyHwh/U4LyAE1UcRUTwzj3zkhNB+Y3HACnv9sCvEXPzVv1aNeRNngNHzJvoNapq2oUoWf5gAUjeh0b1aimc0vI7WT2lTBzQxVlW37I+6G/siVFRwvdGQSuCXKZ8ogQlg+44jSi/+Zu2m7cxOrdugmJh8GCjLG/eFwNS2gPXMdWFVRTJsoAHpB7Ei9Q4pY+Egv2dqxzJ0D541al661uWpCYbZIrlPXSwT0ebS5gK8+Yx7mx+99PSwR9PXLJyrShkx75D8N9iQoRDXLZS4V37bPjbNIFWSL1dI7/xmFaoPYC137DRQz/9v5iUbQOKp0fDzGW5L0RqCuGmVIjljCybXJVSmjdn0fL3P5n0V8oJSuE6FwVajjFyRdjSIE+N1vD831//HDFmyn+XGd1j9BHOLRFskuLgBUfRgC9nLxSR8rKxWJGClFEWfkzxCIqYQW92k9dP9neukmQwyMiERJXiVZBboyrLg5/lylF+L1s3aYASMMKLZSMZRn+u30olx9wyrS4pBk5KISvaI/sjxCgi1OAoh1kJapbyLkaFyG9k3UDzupIUtITH0uYVhl5ZLfGx+bwXPKJi1BS2QY2UFXQ1abEJZTmvLGNLp0u/4T0HhRq3xqWFF5UJZbT/x5QNAJitlBcjPdkAcLMJY3fxijVQaBhk8ubLbQCTKS8JGB1Xb9gmgqhRscq2v3OVJCPPtahS1e1EjSOBRgijQVa0MMULQV7hY/5F5O9//Y1vLPrg5hE62DUSAr6bSGM1glhOY7tTpCpG1thH8ZSL1rmATOw2DhvYm1IhYFOSgopyKF5VyJbyXwNFkuztQ8xXcxZRFrEMxyamcFBjBxNJlSuUIwXZaUyRENDgbv1HwAGE/2iIIPwRlErrdHhqsMGPNwdMquhXlhTEPpIItm8ZAgGzHpYpMGeJK8G1jZiLj7wQETFYe2JDSciYKCeOGqJYO9vfuUaSwbcLXzCGfdB53uIVoj58o0r4CTFawr6RhzdSEMK9Bw/JQ6bYNhYKKQdYjCImKbxq6AaxIQh/BD0P7RGNGTlI9kSgU3sM/ECUM3rE24rDBZQLCmJTC7uNI8OmIohNrTI+JURG8S0P+7YbZMiLl4GWIJjI0N+IxDd86OThRAz8/vgW29VwqwpbFseHyL23dNW6veFHoSM+OBgC2LFXPejD8WAPapk3YxwAIUyghlU5vjHwj5/+PUYsNGPowFROHBzRMRVnMJT3LYPRDkYIYoYP7E3GKHLR4Pfdj0vQ3ZQF/wmqfe/BwjGJ4xtL50xTzOm6dK4HzJe6rV+nWrWEgX26kitcoQPPE51OmTnhI8ttH7ypwFHk6tS6CYYlYArrPuyDd2gHBm5xnLwQOoAbIzw6CZ502pfE9ug7b/VQeIDQ+E5vDhEYiTESdaEQxXEdUWzvwR+LmQXlr1zwlYi08Rv8mDB9tlDGaB1UsxooK14t2KDCLMM7Cd8N3BkQNi2fS24aPGzvwaNo6QAEyvh4w5mybssOenVHDOrTq0s7WmP9/NuaSTPnojoUhZMaq9ZtRiGQl8yeAuet3GaQoEE704CNQQ5edKCBoQ6a8gIFL0CfwaMIzC7tmmOBhWUQTbVwuX8+aqgwl+XydelczwED34EvG84ePAM2yPCnkEWVb3XvSNvGciMgw64X0x9ehZHvvEn2E6n5eBeDOSJc2NgaQvkYwwArMQya6DkYc1ev3YDfGQdO4BeA/xPvJZLAnk+GDcAxAVlfFJ49Wzb/Sn4Yz9EHsE7wh3i0AaarpTJ2+sQC6v3+veAuFyXY+I25GL2CYRKNR12nos7j2BLMl/kzx4McOCMJDiHp8tXrgBH/q1YeRAFp+xYhsXHxxyLPoDoggGUQXiqcicIYA4fO9PGhOL8kc6Jy+ZdxiBK1oExo4htU/urzVMWKlntlz47l+fotRu8D2oC2YXX/9eejaBgTahgdQcFs2bKJvRw4VmAog+hIhcWCKRLHsbzU/gOBLp2reWhRNM7Gb7zKcXEJ8I/TtGKZEXtt12/efmw8vVmycMH8lgoiBk+O+RTOCMwRBfPnw64tHe3SyoJ4ZDl+MqpI4QJgDx15Vehjxz3i+Gm8rDa6lxXZEcT5Kqxn0UIcc6hcvlyJlJNqQg3zGpLi4uL9K/sp5nQqB+MudmZv3L7z7+N/c+Tw8itbSjEskaYQwBgAi1UnfB/ynrpCDUFQ4Wjk6UeP4mFDly5ZQjHey/rGt/HKtYtXonGg2Me7aClvowEjK1jK9neuPiSzbBnHMAKEgHJ1SQksMAJ6IcAk0wtJLkcTASaZJjScoBcCTDK9kORyNBFgkmlCwwl6IcAk0wtJLkcTASaZJjScoBcCTDK9kORyNBFgkmlCwwl6IcAk0wtJLkcTASaZJjScoBcCTDK9kORyNBFgkmlCwwl6IcAk0wtJLkcTASaZJjScoBcCTDK9kORyNBFgkmlCwwl6IcAk0wtJLkcTASaZJjScoBcCTDK9kORyNBFgkmlCwwl6IcAk0wtJLkcTASaZJjScoBcCTDK9kORyNBFgkmlCwwl6IcAk0wtJLkcTASaZJjScoBcCTDK9kORyNBFQ+WFiTV23ScDv6Vm/atNtkNDnQZlkShxtuWpTmYfDVhHgn45KBQ9+T2/gyLEiCj/JWdmvXFxC4kbcc3HY+NvsuAWH7ihJlY0DVhHgkcwMD37IzsarNs15WLIBATb8zSDZftWmOQ9LNiDAJDOD9BxXbVJm/NStfF0BxbMABHi6NNPgOa7aRGb8/jSu5pz109KihQum90e1zXW7tMQkM3dvuq7aBCPn/bwCF7jQfbnmglhKjQBPl2Y8VG9Qwx02uKVgpnTziMiAWyxw80Oe3LlwC6e5CJbUEGAXhhkV+GCHjZ4s35poTjMYfpw5QVy1LkcKuWmXfrii4TnuoLAsyiVjeCQzdytuVEjXVZvmnCxZRYBtMiM8z3HVplVUOTEVAkwyg7hqU6CCC2b+83pnIYurNnFHnZhAFVdtpkKRA1YR4OnS8HxXbVpFlRNTIcAkwwWRz3PVZioUOWAVASaZgS7NTNdVm1ZR5cRUCLBNZrx+FZdUApWxU2ctWr5a9arNV9s2TwUbB9KDAJPMgNM7c6aHzfppGTYfcduyfOEyrtrEnbd0Ubp1YJ8kGW/05Y8lAkwyIyZBgdXw93xXbVpiyjEKBJhkZkCww40/c5glnRBgw18nILkYbQSYZNrYcIpOCPAG+XMCeTn6+orVG5OTk69Ex2zctluU0qRBEC72zuqZtU+3Drjs/DmLdrlsTLLn7NKDR46/+f6nuXLmEPlxgbwsL/lhSuXyvs9ZtMtlY5K5XJc63wOxTeZ8feJyLWKSuVyXOt8DMcmcr09crkVMMpfrUud7ICaZ8/WJy7WISeZyXep8D8Qkc74+cbkWMclcrkud74GYZM7XJy7XIiaZy3Wp8z0Qk8z5+sTlWsQkc7kudb4HYpI5X5+4XIuYZC7Xpc73QEwy5+sTl2sRk8zlutT5HohJ5nx94nItYpK5XJc63wMxyZyvT1yuRUwyl+tS53sgJpnz9YnLtYhJ5nJd6nwPxCRzvj5xuRYxyVyuS53vgZhkztcnLtciJpnLdanzPRCTzPn6xOVaxCRzuS51vgdikjlfn7hci5hkLtelzvdATDLn6xOXaxGTzOW61PkeiEnmfH3ici1ikrlclzrfAzHJnK9PXK5FTDKX61LneyC+kUS9T+LiExYu+yP6+o3uHVtVKl9OXYljbUOASaaO0zRc6LVqPdIuXrm24OuJ6kocaxsCPF2q4JSUlLRm43aRkCd3LhUNjkoPAkwyFbQiz5zH5Q8ioWolPxUNjkoPAkwyFbT2HTpKsYH+FUlm4fkQYJKp4Lb/0DGK5dtrCIrnFphkSuhgkO3YGy5i6wRU9fLKrtTgcDoR4NWlEbD4hIT7D2KTnz6FfO7iFcKwbOmSV6/FeGQxvooFXsqbPXs2SmLBdgT4Ai8jVq8PCo04cdo6aqOG9O/RubV1HU5VRYCnSyMs8uX2qjAhEqOaVhLHW0eARzIjPg9jHz1JSjI8NSQkJjbvOkBABoNsSthIgi9f3jwks5AuBNgmM8L14jOP67GTUQRf3ZrVmViEhj0CT5ep0MN9vBQO8K9EshXhWszN8IgTVhQ4iUeyVByQ3bBp7ovfe/Bw1drNs35aWrRwwZULvkpVEAckBJhkZjCePEnavvugCMMgy57tBXOaJJ2KujDv5xUXLkdHnj4nRbOoiQBPl2ZoTkadp0CdQH+SFQIcaXvDj2LjvF+vVxVJHFRFgEcyMyyyaRWobZC1ahKMP5Htz/VbY27eNhfBkhoCPJKZUdkbHkEB3rIkKOwXmGQmDLFlSQZZrepV5B0k+DX+/mdPQkKi/XC7Zwk8XZr6HWfIiAGw+kmGn7bfsNE4XrZ68XelvItRPAu2I8AjmQmriBOnCLXqVc1nyOb/8jsY1ji4NjOM8EmvwCQzIRb7yHQUFuEqFXxFLM78zF20AvKwgb1NevxP+hFgkpkwo50lhGGf4Tv8aOTIsKkQ3u3bo4xPCZMe/5N+BNgmM2HWtlnDeYtXCH9E6PgZiBVHF3t3bf92n67pB5ZzmBHgkcyEBUayqWEjixQqgDDoJRg28p038WdGS0MynuDgjzYCPJKZsalepcKm5XOjzl86fjKqSOEClfzK5XkxtzmZpedFgEmmRM63jA/+lLEctgMBni7tAI+z2oYAk8w2nFjLDgT4+HW6wbscfX3F6o3JyclXomM2btst8jdpEOTjXTSrZ9Y+3TrkzcOWXCpUmWSp4LAlgNOzb77/aa6cOYQy9gNkeckPU3hzXQEjk0wBCAf1R4BtMv0x5RIVCDDJFIBwUH8EmGT6Y8olKhBgkikA4aD+CDDJ9MeUS1QgwCRTAMJB/RFgkumPKZeoQIBJpgCEg/ojwCTTH1MuUYEAk0wBCAf1R4BJpj+mXKICASaZAhAO6o8Ak0x/TLlEBQJMMgUgHNQfASaZ/phyiQoEmGQKQDioPwJMMv0x5RIVCDDJFIBwUH8EmGT6Y8olKhBgkikA4aD+CDDJ9MeUS1QgwCRTAMJB/RFgkumPKZeoQIBJpgCEg/ojwCSzFdOnT58ePnZyz8Ej4ncYbc3GegYD/3SUTSxITn46YMQYXEQCbb9ypWdN/qxwwfw25WQlg4FHMptYcPhYpGAYtE+fvbB6w1absrFSCgJMMpuIEH39pqynCMpJLFsiwCSzxEQlJqR+LTm2fcvGcpBl6wjwr/pYx8ecilly2ar1cfEJLV8Jblg30JzAUloIMMnSQojT7UaAp0u7IeQC0kKASZYWQpxuNwJMMrsh5ALSQoBJlhZCnG43AkwyuyHkAtJCgEmWFkKcbjcCTDK7IeQC0kKASZYWQpxuNwJMMrsh5ALSQoCP+qSF0LN0nCTDVdG4f+StHp2ah9R7Fs3/po0AbyuljRE0bt+9F9LxLVL99otPefuS0EhT4OkyTYiMCjv2hMt6W3bslYMsW0eASWYdH1NqudTXrPr5lrEpGyulIMAks4kIVSr4dmj1ilCF3K55I5uysVIKAmyTpYMIMTdv33/wEGf805GHVQ0GJhmzIMMR4OkywyHmCphkzIEMR4BJluEQcwVMMuZAhiPAJMtwiLkCJhlzIMMRYJJlOMRcAZOMOZDhCDDJMhxiroBJZisHVq3d3LRLv6BWPX/8ZSX/RJmtqKXo8baSTXBFX7/RottAUp029gM+t0hopCnwSJYmREaFPQcjZL3tew7KQZatI8Aks46PKbV6lQqyXu0aVeQgy9YRYJJZx8eUWraU97t9e+TKmQPhVk2CW4TUtykbK6UgwDZZOoiQmPgYP0/s5ZU9HXlYlc+TMQccgABPlw4A2d2rYJK5OwMc8PxMMgeA7O5VMMncnQEOeH4mmQNAdvcqmGTuzgAHPD+TzAEgu3sVTDJ3Z4ADnp9J5gCQ3b0KJpm7M8ABz88kcwDI7l4Fk8zdGeCA52eSOQBkd6+CSebuDHDA8zPJHACyu1fBJHN3Bjjg+ZlkDgDZ3atgkrk7Axzw/EwyB4Ds7lUwydydAQ54fiaZA0B29yqYZO7OAAc8P5PMASC7exVMMndngAOen0nmAJDdvQommbszwAHPzyRzAMjuXgWTzN0Z4IDnZ5I5AGR3r4JJ5u4McMDzM8kcALK7V8Ekc3cGOOD5mWQOANndq2CSuTsDHPD8TDIHgOzuVTDJ3J0BDnh+JpkDQHb3Kphk7s4ABzx/VgfUkXmruBZz8+yFy2fOXXoUF1eiWJEGQYEF87+UeR/nf9VyJpk68rGP4r74eh5uhlMkt2hcf/LoEVmyeCjiOWgFASaZCjgYwN549+OYm7eR1ji4dsO6NbN4eIQfjQTn1m/ZWa1y+Tdea6eSjaM0EGCSqQAzYcZswbBxoYM7tW4iNHLnyikGtrmLVzDJVFDTjmLDX4nNgcPHt+823jRY0a8sMQzBiV/+IFRfzJ1LmSclHJ+QcPVajGqSm0cyyZQEOH4qSkTduXufbuhNTn6K27tEfJumDZV5DIZjJ6Mad+rbsvvbW3ftt0x18xieLpUEuHA5WkRhxvxw3HQMZrjsEnPl1LCR6zbvCAqs1iyknjKPwbD2738excUjPiEh0TLVzWOYZEoClCxehKI2bN2FPwRrVK3QrnnIuND3tNaVDYMCd+471LBuYLNGdSk7CwIBvu9SyYSIE6dfHxSqjE0J161ZbebEj3J4eammcqQWAmyTKZHxr+Q3YlAfZWxKePeBIwuW/qGaxJFWEOCRTB2cXfsPb9y2e//hYxefmWikF7H1Nw8PszMWd/mePHO+UMH8vBlAECkEJpkZkDPnLv719z+YDXHLeMniRUXC3fsPYNRPmjmX9PavX0I3RJ+KujD0sy+uRBs9F22bN5r0yVBSY4EQ4OnSBMW9Bw87vzV07qIVX89dPH7a9wRQvrx5enZuE/ref0RMqZLFiWE3bt3p896oQgXyTRv7AVJXb9gWeeYcZWSBEGCSmaDYtH0PgRIdc5NkIWTN6imEoAB/Slry+1q4LcZ+OLi8bxkRefb8ZUplgRBgkpmgOHzsJIGicLc+eZL05/qtIjWkfi1S+/m3NfBrlPEpsWHrThHpX9mPUlkgBNhPZoKibClvITUPqTew92sEEI5jDB89GX4NxOAIRnCdAEoa9nbv4No1YPj/tmYTIgP8K/mUKEapLBACTDITFJ3bNAVXsJaE9/XI8VPw8mO1GHX+EvaLhCsfjtYxIwcRcBC6dWiJ70NHTwrDv/OzrXRZh2UgwKtLMw3AlRmzFwoXvznWYPArV7p7x5avtm2WJYuKdTF26qzlf26A/u6/FmP3Sc7IskCASaZkAubH4yej7j+MRUKhAvkLF8yHM7FKpWdhnLyo3aIHQjDOPv9kCIa9W3fuhtQz223PFN36X54uld2P0ahOoHkJqUxOHd6y03Tmon3LEBhnYyZ/W660N5MsNUgGlfFfocFBKwgcPHIcqfnz5a1Vvcq+Q8dOn73Q7/VXrei7ZxKTzK5+f7lsKeTPmcML5v+QTyZh9QADzq4SXTEz22R29eqDh7G9B4/C/2hCKRjMZowPzZsnt10lumJmJpkOvYpZ0tPTs4yPt9ZpMx3qyMxFMMkyc+9lkrazTZZJOiozN5NJlpl7L5O0nUmWSToqMzeTSZaZey+TtJ1Jlkk6KjM3k0mWmXsvk7T9/wFRGIHvlTGNqAAAAABJRU5ErkJggg==;" vertex="1" parent="1">
          <mxGeometry x="48.06" y="428.5" width="113.88" height="163" as="geometry" />
        </mxCell>
        <mxCell id="DwbIfkqpnQ7Z0dvdBgJN-9" value="" style="shape=image;verticalLabelPosition=bottom;labelBackgroundColor=default;verticalAlign=top;aspect=fixed;imageAspect=0;image=data:image/png,iVBORw0KGgoAAAANSUhEUgAAAB4AAAAyCAIAAADEPPy4AAAAAXNSR0IArs4c6QAAAERlWElmTU0AKgAAAAgAAYdpAAQAAAABAAAAGgAAAAAAA6ABAAMAAAABAAEAAKACAAQAAAABAAAAHqADAAQAAAABAAAAMgAAAADOcPUAAAAEgUlEQVRYCe1Xe0xTZxTn0kIBebotatgYm4/JeFoEMheVucz5mNNkW7YYliXbjGaJ0RDiVGLWRaeLbFOcE/1DRBcxoGOoo3MqLlIdIggdEEBQBMU6QETeaKHd7/p1p1373Vtbw/7aTXvzu+fxu+ee75xzvyuYzWaPsTk8x4ZWZH0iajzxH+X6+719/PigduMwmUwV+tqVaV9GzVl2TlfGZVDybygt3Xswv7K67ur1lnvdPdJWosblhJw6d8HQ3jk7Sf3KzFh5apejLjy4izFqi3WlFX/KsLsctQyXnep/6v8uIfwKKbtSjSKbOOGZFSnveHo6WQ/0i1287JJD3WZo/zT1C6ZWx0QkxEVxPUlo9uBTcyIquVRBbn6+PoSlgETQvG68eLmKWKaEhxGWAlIJsY/6odFYUnqFsSAVKpW3FCPJH5e6oekG+STFxxB2A9hHra9tIJaEuEjCbgCxQjru3hsdHWXLbDtxAgP8DX91eAiCt5fX0+ODGfuxk6dvGdqHhx8U6y4xyfbd2eVVtf7+fhFTX5yfPIuCEEor9CtSNXQtBWrO/8xUH6/ZVK6vHefna2c5MDiUPCvh+20bSa5sbbtDF1JgRvR0UmVnbiYsDwSjcaRvYABGeCcdyjuRfcQSXdb2TZHTpzBnX5XKx0clT+SoVSqVipCgQKa41nKTLBLV0UgxXboBrBUyMjJKFY2X0xPyIhQrdX1TM4WWOCOasNvASl1VU08s6tiXCbsNrNRlldXEEvmSZQFJwgU3b9958NDIVUFooUbLUKKT1NEqb+cLuOGrnYuXf7Z81Ton1PU2oyNR7Xx0dPf0/nL6PEgHh4akxpPlVYANEd08PiaC8ODQ8IWyyudCJ6KJSQgQHBjw5muvdtztSl31kSAItirCFmqpRP949OTu/blL5idvTV9DPgCg+0aTZitxxGKu8USUaPQ0NR7G1oFHzfnhe0scPZ1KRGq0ONnFx1oGKTooTZOBoYOQI6b9Kxs9vf019U22XuRuC8SEKBQKEvX29QP3Dwxm/HCgqqZhfEjQ2pUppDWZzN9m5RzKPwEJVJlb1sdFWScXmTGg0Gg0QMFBAVgugJZbhs6u7vStmdV1jZich/d8HTppAjPFOSsnb//hgs9Xf+KlVKJ7sWlf+Pps0toBMSE4Pli2aOnCeQDIQG5BEc54MR7ZlxEeFvpIL55ABGrkJ+XdtwL8x0GCbTZpOQBrSAfy8PvFy78W665eu0FCAnmFp/AN0NzahloGwC992y7SOgKxPB7zqGu8rj2rg3HR2RJGjZKV8bXUNedxHEToGtY4hdpiKLGMM/8pJwdbUWDJNVfHFeJrg72a31+6QH476DK19kwJu+XiN+ZiqOUf/629s4sbhGvUyOxPRWdAhKZ9/tlJ6OHN3+3tkfhudI0aAWIfC+q3F8zDbXLyjmPjMW1yODdqF5YR/k+FBKOPUPVIxZYd+zAvi3L3cHlFoUz1cFW5BVpWeTizWuSaQSjgL3lbCQU6q7G5deoLYawnJaw83KGW4rKTu7aMds7yl2NI/Tf/IsPh8+g4TAAAAABJRU5ErkJggg==;" vertex="1" parent="1">
          <mxGeometry x="448.76" y="653.5" width="18" height="30" as="geometry" />
        </mxCell>
        <mxCell id="DwbIfkqpnQ7Z0dvdBgJN-10" value="" style="shape=image;verticalLabelPosition=bottom;labelBackgroundColor=default;verticalAlign=top;aspect=fixed;imageAspect=0;image=data:image/png,iVBORw0KGgoAAAANSUhEUgAAAB4AAAAyCAIAAADEPPy4AAAAAXNSR0IArs4c6QAAAERlWElmTU0AKgAAAAgAAYdpAAQAAAABAAAAGgAAAAAAA6ABAAMAAAABAAEAAKACAAQAAAABAAAAHqADAAQAAAABAAAAMgAAAADOcPUAAAAFd0lEQVRYCbVXCVBVZRTmyZMnyGqWKEhYLiAgCIqjVm6TueTClC0OWFO5TJOTWxuU85xEVCjDQHQclaGAQZPcHhmgKWAsIxA8BQRENlE2TbbH9h59t/9x3p37LuilvMM8vvudc777v3PPf/7zZH19fSZP5xr2dGQ5VfnQpDs0nRVVtY1ND+yfGz3ewd5ypIWxjmTp3l5tzKlzBw7H8LXWvbVyQ8AaG2tLPimTmuvA4PDzyVf8li1aMNe3pbUtNlFVXFoBxckvOsdE7BlpYW5Qh/STX5fTs91fWR0SfpRCNJrOdZ8EgsTfzn0RxANIe41pmdexqNjTquQrf7LVjRih2LoxgOFEVWp7h4ZWLU26ovoui7yQcpUkpk2dTPjmrXLC0qTnzZnBImf7eJKETCajFOt0OuKlVcgH7/pxojIT10kvkETtvXrKg8PYMcRLk0aY62SDKFPJyMpjAJkZP86epKUlhMIIPGppCz/6M7v9YvOHxAOIrzo7t/Di5Qz7Mc+u939j2LDBHh95Ip5lIyRoC/99cs/gVyLDNXfvszrFZ06+2tiBmDNJl5hnUmo6kQREVp2WxRUvuyzMR/RD4f/sPPXXe38EGxW68yXf6UKziYnIl72Wk09+E52dCPNB6e3Kj7buRM3FHwllup2dXb+cT374qIXchNLdPT1pmbnMPNPLXaEwI1cCdfWN67crR9nZxEbtc3eZyPjyyppdYVFIJrkJE1JSdodss3ymESaAktiwXTlcLo8+GOw4zlDFuQU34ePkOJY8hdJ/3Sgh20wvN8IMdHV1bw4MrqqpQyo+2xUGUqvTabW6ru5uRtpaW1EIJ93Q9ECr1bJzLPN6AdmsrSzr7jeYyGRmw4ePHmULfn/k8Xw192wU3I0SQ7tgIVMmTqBYAHlWbsH6bUo+Rdjv/U8Jq6/+ClxWUUWMMXARSFfV3jN2EjDTPVwYExMRIjANcivr6eltbW+HB5pWTMK54/Hc6nBF7f/Grf/tmysU6MuMf/JPuVxuamdjzQLKK6sp0tfbAymm2yEAQ13jPKWKnj3D8z/qYikG6eIy7vRkl+90j3449P8G6Xx1Mcl4e04lPGRgkM7OKyQVtyn67UuMKKi+e6+ru0fUBFIvjS1DiZ7l7aEwe/wL/Cr4h+VrP1676fPHSBfzWoevt0jrEMSjw11I5g71Do0GDVpgZbf6HpJXWERmn2muhDHbZWTnYarjn7Owole8tmBuQ1Pztk3v4UQnfz7QSw+U6J9OnY84Frdi8fw9QYZNj3jIhSl38IWMMZdrfCNKNPY0bTy0rRP/bs6ANSuMIx/LcNL8ucTHU99IsYN2KEPR4bBkwYCAlq0uLuNHiT6GS4ipqSnZMHwCt7V3hEaeQP/EUbJloz9Zdbq+76KiY06eAwNT+O4vvdz1nYt8CJgqlUrc2NpY4XUBVNbUNTY/DNoTXlhUin4fe2gvfyCKik44FpuIeQOnDHbv3y2tSxe9TFoCoK/rd1YvW7V0IWzIQFyiCp84GHGkOjs5UACEII38+L/5upXlSPBFt26TVQTQ2ACAPPxxLee3S+m3yu/weYYTzlzE1IHfGahlNn4EhRw0diNGZMQhmwAUld5mo4wqNY1Jo2QFPvxbfV2LfB0jCruGbRwMTTDiNc7oLycjX47Q51rUJkpiCGFH89urlgw+DkqWTkpJY49c/uo8NLWTZ3+vb2wWXYQ0aaTytCoFQti0zzuOxR7+9vvDj1pa/wdpLLC2rh5CK5csxGOiE84unj8HP+tEpSW8RsQ/Y2eLfYSqRyp2HziCfqmKOySqy5H8cnkSHJeYxCoPn6JjNYlI/rWL1WBnlVZUTZrgxPbkQKseivRAWgJeWoUIgge/fYrS/wCBzWLepuScvQAAAABJRU5ErkJggg==;" vertex="1" parent="1">
          <mxGeometry x="448.76" y="699" width="18" height="30" as="geometry" />
        </mxCell>
        <mxCell id="DwbIfkqpnQ7Z0dvdBgJN-11" value="" style="shape=image;verticalLabelPosition=bottom;labelBackgroundColor=default;verticalAlign=top;aspect=fixed;imageAspect=0;image=data:image/png,iVBORw0KGgoAAAANSUhEUgAAACAAAAAyCAIAAACyBk4zAAAAAXNSR0IArs4c6QAAAERlWElmTU0AKgAAAAgAAYdpAAQAAAABAAAAGgAAAAAAA6ABAAMAAAABAAEAAKACAAQAAAABAAAAIKADAAQAAAABAAAAMgAAAAC2pqYRAAAFzklEQVRYCbVXC1BUVRh2YWF5yEtiABHEUAR5uctDS03FJEwNpzKNaGymHJymrGF8lNS0k4pMioKWpGkyNuBgI4gESL5GxATk6SogL0FxVRB5Lu9H33IuZ5e7dxdY5c6dO9/5n+ec//z/+S9vaGhoirZPd3dPu6zTytJCgwG+Bp46VuThE5ezcp41NhGBG6mnzU1N1AnrqGNooBsZGtrZWhMBaytLDdYho80Ktm7+pLevz/vtj6C/0MdLw1TA0mYFUCu9X03s+nq5TYqD28V3iV2hp+ukOMgtuAO70yzMHOxsX72Dnp7e3EIJ7C7yFSpbr6iubWxqVqYAaxPke/eriBVfoTsBKRlX/4g/V/dIimH0np0rliwkdHy1CXJ+SSnRF7q7DA4O7f/t1A+RR9asXOrkaA96auZ1ah1AmxXkFTIBsLez2R0Vm3E1O/H4AemzxuraR7BoZjr1pRzQALi7zN65+xCO05lj+2c52LW0tcOusZFhUOByZQc8zlqEQ3LxaraNtdXmkA90dEZtY6GkbNNXu4gJmEuOi7G1tiJDRNjE2MjAQKDsgGOL6qXPvgj7iQiJPF195zORJJSCkntUX9bZtTF0e/D7qz/bECQQ6HNWvVGzI5pZOfnUhJGhAcUE0Aw4eyIKp+VFc+uvJxP2Rh9nidEhh4ObeUWUPdvRgWIAlCCSAUsWervOef3gzzsClr0JenL6lYGBAYC8IkmRpFxZhe0AJrJuFRAJbA4WrixdXvmAYQ2XIB0d3ozpNoTC4+n09w9s3bXvv9uK+YHFdkBNgLfA25Mo02+RpIxgWoK6urtBmWk/Hc5yCkoQlUD/xVQegO2g+K5igb7z2ZWSLF+5BPkv9oOV9g7Z3fKqyCMnFy8QkXSjPuSnqOH5C+wguTlv5ZdQnqnJVOnThik8nr6e3mvTzEF/0dKC7/q1AVQG2/jO8kWZ125+HLod64jY9Q1lEcC7lV+8OUzMoqoOJdeTQWxqbpE+bXSb68RKjuaWtsdPG+Y5g85j6fLr6p+wSKpDoYcLIVpamONVFbAwN8WrSgeF19fX3y6TAQ0ODp5OvPDnGflM8cT+8qOby2yCDQUCVn4S+ni+fD5f18KMcV5V+5Dq+Ik8sPV0qDVQnCKcYpoBb/h4vRLrmJbCQVllDZ2mn9CD4pcECgc0iWBR5DXvJe1SdYWD3OFrhDDc5jLhpXKc4OHjJz29fZwsSmQcINFoABaIPAT6Y4f3+73Rq4O/DN6yg9riBIyDspEqBiE/EbsEqWo2t7b986/87u3s6uK8sqgKc+EU3mHucTC8lXqpzq7u7NxC3L0ozlQHAP0oKkTD86awLZt4PHb2KksyDtQF4K+/U3GfrA1YFhE+qsjA6AHxNmVD6rB8i7BGGgBUBZq0KIKnhhP70/Vr1emPSZc7QJGgct4jzSzybpt4P+o7pu/qPGp/Wts6JGWVylpUXRXIt0hXV5cy2to7gDtknWinUP1R+r8NDaFctFlRsXGnz14ABayYPd/Nd2fqIJVhAV2xWAySuZkJgglQ+0iK7iM8IuZOaQW6kvijkfRfA9zYuMST8Uk7v/5cj89H5qMXWrViCegaHvkW4dm47t2gVf4A2JOEpDR8cZOgo3J0sBvmyz8wBwfYsZAP15hMNQaF/iVQGQ6ACNMHO3PtZl7GlRv3qx5QIgWJ5y+6v7Wupq4eZx8Ab/i+w5SrDsiP0Dif0orq9Ms3IJx2OYs4wOEeU5fJA46lqZCQayTdzqdfARNB9hk5ciqyCgITAwVhLIQumjQGG4ICWTczp+qEHaRfyiKGVq9cihJ5NiWT/jC/AgfY8XNpl2AICT9zhi3yf/fB31uHG3dO6yBObAWYLHpvqL0X6A9ncYkp6E2dnRzVWQd9AkGGNHoWZB+yBJuz59Ax1OC0hKMarMtZY54zlkBCUjo5o/iSU8sSYA25/3A0Twr5WFFTN2eWA8lnzcLaONBskcWdWJBZyuMZTrqD/wF0UghL5FokrwAAAABJRU5ErkJggg==;" vertex="1" parent="1">
          <mxGeometry x="450.85" y="796" width="19.2" height="30" as="geometry" />
        </mxCell>
        <mxCell id="DwbIfkqpnQ7Z0dvdBgJN-12" value="" style="shape=image;verticalLabelPosition=bottom;labelBackgroundColor=default;verticalAlign=top;aspect=fixed;imageAspect=0;image=data:image/png,iVBORw0KGgoAAAANSUhEUgAAAH4AAAAyCAIAAAAV2/jIAAAAAXNSR0IArs4c6QAAAERlWElmTU0AKgAAAAgAAYdpAAQAAAABAAAAGgAAAAAAA6ABAAMAAAABAAEAAKACAAQAAAABAAAAfqADAAQAAAABAAAAMgAAAAC9laIOAAANRElEQVR4Ae1aB1hUxxaWZkGKFVtMjL0rKtjQiFiCiu1hLxGNXWOJqJGQiBqiUYItamzRZ8duBAuWaHyWYEMELKhIUyx0sSHkXwcOw717C7CKD9lvv90zM2fOnHvuzKmjl5aWVqjgkxcS0M+LRQvW1EigQPTZ3gdBN+/cC4vM9jTRhALRi0Qi3REaFum+ZE2/UdN2/XlUGkvtiKFaxI8Y7+hfZw/6nrp7P+J+eJQOxVCw65WFedE/EEqmepVPHR06KWOrxtD7SDyci1cDg27d6fBFy4rlyqoWjhDxQfTjTn1HoXdo3+7O452Ew2/bDx89OXziTJ2a1Zo3aaAVgTo/CoXj7Xt65jxPPHOLpg0L5UL0JDUZIDY+wWPlRiDMnTmhp72dDGb+VzjXgm4xuU8bN6xmtSoystDJUJ0aVb8d+xVIuc5ffubCZRmahmGRD4ZPcpXBMDLSnAwDAwP8GhoYFC5sVLlieSvL+l3s2piZmshM/BCGHj2JmTjLHZy0bdl0SJ/u74eloX17XPIP+uus39jpc3ev95R633r37kc4DJmQM556d+0wsHfXWtWr5Gz6u5718uWrYd+4XL8RUqqk+b4NS0uWMMvlimp0PVsiLiHRcfiU6MdPsfTOtR4WZUqLl9aY2fOX/J8lP09+/gL24fS5S4QEybZs1sjQ0NBAXz/ljeYTFvnwTmj4qbN+wCc0DzfnTu1aUfPDAX785bc93sfAz8qFP9hYW+aeMfWix1r/XAkYMfkHAHZtWiyeN0O8ukaZtGjaiA1AT/Gihy/VoE4N8ZykZ8nb9vosXbOFDX3748JZk0cN6GUvxszDHmwRJnec99ZWjRU5uR/xwGv/YWzE4QN7lylVQhFfEcHaskH92tVx5o7/fT741t06NasKpsiZWWx3ATZrmhQ3HjnYcc2vs2nUffHqbXsPUfNDAHbsP8zYGNa/h56enjxLqalpY5zd/ut1YNPOP9VEqio9cqcBvdi6y9dvFTMgJ3roGfEE6sFZWes5h5qQPlxaauYtkJCYtG2PD3goblysU7vWiswgKxMRFc3QjIsVVcRPTU1VxAFCe5vm0PUAoEvgaAmmyAlXX1b0IISogdfyi1ZsEFDPqybifrb0sP49ixQ2UmTD78p1woGWIFgKUJloh9oY1q8nI7Jlt7eAmpzoFc8paI1z6k8Uj5z8H2wLNfMKwJaE3mCra2IoFZ+zflcJq14tFaIvpLbIQTEtfBPBWZETveKuB7vVqlRmZ4qxvtfnOD1DXgH+gbdIe9Su/rkiGykpb7BlGJpV4/pFihRWnKIeoUbVzxgyfMKbd0L5iRoPR+qjYJsypkHp+xw7zVonz/wDk6Wvr5n6+Gnsk5jYhMRn0LzxiUkJCYmmJsX7dO/MMGGpkAhMfJacmKRBwG9MXELj+rVpm4DXqIePNHMTkuAm4ws/feywfqAffPsOcjJ45Y3q1fq0UoUMRtL/A2+GMKhh3ZpFixYRjIqbUPTU2aJZurNHPbkEEJDidfpd1Sg0qDX4kERQTvSEJA/Uq1WNRA953QkNY6/adf4y2k1EgUT/OiVFHMp1tm1NokfiZe6vq2giA2Bahk92jYmNp/4JIwaOHtqHmgBI9M0a1+f7eRgv8vnzF0xrnDmfGe6XtyiN913orUdUwaIMU7mIe85dvJaSkhIQnG4qYcMRBpUuWcLczGR4hhvD0+fhpo3qMtGfu+iPvBsN6UD05lnTCRf9g5joBaqNllQJpKZp8SJGT3OD3Nu1skKYzugsX7fVoXM7Ph959foNNiRlMHHC2jgM1cqGi/tS6vda68E2KTTY+q174CxhCEcNDAA+duocmthqiqKvXzs9NroSEEzEAehA9CYmxjzFiKiHrLlo9rSnsfGXrwXNXriCR2BwYSOjU/s2xMTFb9ixf/+hE2KEXvZ27W2sQ8OjnN08aJsjNMfGX+A61dLOkaaERz4k0WMzkqIvU6ok4fCASie4UnkLNgunSnCweGqKMNlCvCfYFYqWdCB6th2IgxcvXzIYyTV8P/+00tY9PreyWhiGAJ7wRUJRq+hh7iyKlEb2Y4ijw5I1m4n+jIkjwH2XDm2ZlgOFJg3q0Ch2NMGmWfcE9eNQnj6wEc201LTLAcFTXBewIRiSAb27MBiJQlgmmpIbwLR45taE6aI3oQPRv3qVwnPGcpx8j0Aj8UOAzUwU0p8luLRXjy9tLcqUwqw508fbtraC9YZ5YLlVRjar6CVlV9I8PZWm0ewZn1ZWjak/o08H/6ammWyAYV2KPik5mWfQTLRZmMPD42SF1frImFU7w0PAmfiyvU1WOpoW8kvUiYQHwVLAhcvXaKhurWoE6xAwKc6JPiGRKMv59YQkD8D54xEa1KnJNwErxQcqnVgNVcUEdRKXUlVMCUDzUroQOVqYHwHnOmny4TQvKx2I/lZIpl8MXuFLCTgWqyABgvqmskLgYnzFaPwGxzmKP+rZyDEmEu80Vwei9/MPJHJNGtYVH3MdKhxaSArgC2cvXqQbfClkeF801LRRPYJlgCcxcYgJZBDEQzhb1Ml7g7kVfVT0Y/52CkwfLUOAvp7cKioTsIya4gHiLU0C5+0QMzzAK/p6NZUV/c4DR2x7OSEmwAvg6cjDic8ynS4T40zzIysUeZJvR7fv9SGsTyqW69/TnpoE6L3NK1BTAKS8yQydFF+DgYEcw6Bsbm5K9HmTS50E4OyTokcIrSZ1Q9nH169fEx1FgGdDZ7seJfU/tu2jtd2mj9eaM4GPTDhi4G5ouLgzxz38ruefWUww+HamibKyzHJnBq+Ez2XSXFRMkS6cN3NihezcKElK4pwubtfL+fXymQBEmAjriS3Hbh1REqMmD/AeDmjyTaCdOHOBkN9wJ4A607i6RKo2BMIEAI2EEA9xI+DYuAR+SABnUfQNM12DS/6B42fOg/eNYFswBRkYPgkjGJVq4mYOGwJjfGle7vxKHX+YL9TSugwcSyE7YksEmVJrI8dEQ69eZTmqiPuprAGcqOhHhEkAr5FQnad+KYBSN8G370rhoB/X+WiUpkALscg5N5kDIsuAGxlswPfjnS5DZGJDQsOw3ZKfPz90/Aw/DaUPWCqoC0wAT8gQPI2JR7l5t7cvJVWAj0wA9gJPlCcC2La1tdf+I6xz10HfwY7dGIxdOW7GXHp/6ET5GNX25k0bwn/HipEPHsXFJx46fprh49frwBEkdoyLFStbuqTUqW/ZrPGFy5qKDb+viQIByRkRAOROenLZuq1XAm6UK1tacL3y1evXuHaJ7D9hEh1FAAQZjiDiMYSL0n+Us9b5qzZ64at1iHWiyj51zFC60CCFCQQ4nUwQC5atQwLvs08qPo2NQ/YRr7C1tSVyjUxFgMKazbvwtbezwZSfPFcLaCJby4qukM6xXWsFo6xJHjqStHh/Uk4RuaHMWQTm7oPH1m3ZAyLzvpvIh1cHj56a5/k74zC7dy9QXWAZY5Ctm9WJMiymophATwhtBU8AaULUmu3aNheXKQiTB5DtWv7zrJUbduC2NFKP+KXREYN6j/2qX9dB40j0bIjyQizjYWSYaZOQ6MdJxS8REQD8E4bcC5cKgLG079vEL46d26KVEBDzkj3nzuA3E+ztdz8thoFF7ggbccnqTYD5AFWwuqAZGh7JHg2is84atb3Xm8YwHrfv3sdFdVhaqIsqlSuy7CAUHbxGczNTM9PicFHQCUaldqvg2bQ2v3H5GfUyDM2aNJKSkWLM7fsOLf59E711OMcuk0fZNG/CYw4Y7Yxy26Ftq7yPncI1Sgwd3r6qUoVyPI4MvPugL8uZfz34P5NGDuYxM3cT3/uOYNgDXEgS30GEetHtin27d2ai37LHu19Pe6lwGlFIH4dO/oE3Ix5E4wSjIM4nQcFSyL0w3GGaM2MC+qF20ANFV6GchUpusdWQMGfIWEgwS87DEaD+HzVhP1CYBcPQIWf90kveWvnH2YJR6d7ZFmVhgdyBjxIgzk3Xjm1hEZnphvmVepFi+lBirFCBu38VMwovhJY/RY/jNfHrgewh4QfT02YXgBsOfQWT6+Ob7mV16dBGPZFNXul3UgY5dhXPyp+ix3MytwoA/JybIaHiJ1ffA70Bfxr4lg1qq/QsgAyTxgrImNVMW24u34oeD+8yeSSTr+uCZfCJGJyD36vXb7LgA74Npmuur2ZESVLUEAe4uC/BKDw0D7fpWoOe/Cx62POVv7ji+RGpea7SFGNz9jlw5CSbCJUNb2fy9wsCb4TIk1qyejPsM3B+m/89oj+tyPlZ9HhgeIquU8cAQNLxxN+ZySKtspDqxD0cDCFZAq8X95Cxkbt1/EIKGf1YiBkYd5dJlKIQ4+dz0eOB+/bojCvzAGa5L+GL4GJZSPWwGM3I0AAX9lf8sd15nJNMOgGqCQuBlNOAng6d2knRRP979etl+HinQ1NGDylvUQa30oxyVH0d0scBubb9h0/ii2yVvJODTJetjTVCBEpVST3ae41mpZj48PuR4QkIvo0IHCGVrrgtEL2uJJltOvlf12dbJO9rQoHo35ekRev8CxRER86VsWq3AAAAAElFTkSuQmCC;" vertex="1" parent="1">
          <mxGeometry x="508.90999999999997" y="658" width="57.96" height="23" as="geometry" />
        </mxCell>
        <mxCell id="DwbIfkqpnQ7Z0dvdBgJN-13" value="" style="shape=image;verticalLabelPosition=bottom;labelBackgroundColor=default;verticalAlign=top;aspect=fixed;imageAspect=0;image=data:image/png,iVBORw0KGgoAAAANSUhEUgAAAH4AAAAyCAIAAAAV2/jIAAAAAXNSR0IArs4c6QAAAERlWElmTU0AKgAAAAgAAYdpAAQAAAABAAAAGgAAAAAAA6ABAAMAAAABAAEAAKACAAQAAAABAAAAfqADAAQAAAABAAAAMgAAAAC9laIOAAAOI0lEQVR4Ae1bB1iURxMOcGhUihUVa9TYGyrY0F8kapRgC3YlYsfeUCPBiBKiUYNdYguJURQbGAEVSzTGxFhREVFUFMRKLzaEvGRhbvnaHeQihp977jlmZ2dn55tvd9ouellZWe8VfwpDA/qFMWnxnNkaUBWrQUsNZGS8iYp+EB37qJypSXXzKhXLl9VyoBxZserlNJMHf+K3PxcuWx+fkETYLh0sZ0xwrFOrOmHyC+gV23qNKtsfdGzB0rWtmjce2LuHoaHqyC9nDp/4jY3a77Oq3gc1NXKQJChWvaRa1Mgnz+JtPx3dtGE9nzWeJUsYsg4v7x+3+u4HXN28cuD29fr6BXGZBRmjluu/A52/HPaj34HYx0/zK/K5S9cw5NqNyNWbfqKx4xwHlCldCs2Y2McXrlwnPIBHT5757PQ/e/Eqj5SE/y9UHxhyymnaF8vWfZ+amiapBQUk/CrrxZsj4wy9WzRrxPAXQvOoPiEpecWGH8bMWOAffEyBLbqKvuqvXL85z8MLjzp74sj6dWsrq0Pc2651c4a07dROT0+PCEqWKMHgjDdvCAmg0Yd1Zjl/BsBtydrTZy/yXQJYdf/Bw1HT3ARYvgnHgqaBgQF+VQYGJUoY1jCvYmnRtJdtJxNjI57yHYRhqafM94Rgndu3HjGgdwEkbNm04aGd3jAjAPjhl66Fs2bNalV4PGDHgX2wFX45c855zuK9W73k3rfe3Xsx9iMmCwZr2exv99HQ/nYN6tXWkv4tk718+WrkVFeY6fLlTP19Vpcra6IrAcJv3Rk4ZhbjdurAD4j0BZwTk1McRs14/DQOU+/evMKsYgUBAZrZEc4fF0LT0p+nP39x6PjpU79fICJotn2bFiqVykBfH9sKn/sPHt2Oij555hzoiWyFu0v3Lh2o+e4AX36zbl/gUcizYdkCaysLHQoGO3Hucrb7dZnk5DhQejP9eenq6OkLQANLtdJjrnj2bGPSrnUL1gE7xavewb57s0YfisekpqX77g9avWk765r15bL508cN6ddTTFmIGCwRpnfs946WLTVKci/moV/AISzEUUP7K2eqiOuZ3h0+6Sand0xnZdEMISn23LFf/wi/eadR/ToCGZTcLJa7gJo1jcqUHjvcYdO3C6nXc+VG3/3B1HwXgF0Bh5gYIwf34d2jpGyZmVkTXNwRw2zb/fOen49I0jDkzdtRWGqAh31q5zbLWYESXU5D+jGCtVt3iCmVVA87Ix5AGOyVzV6LqAntwxdRs3CB5JRU331BkAFRYPcuHTUKE3H7LiJ0Rla61Pty9E+exY2dtRC9k0cNmTd1jL6+OuCRHNLVui1sPbpgSxBoCWiUlKsxSWvbqhlv5Zev9xFwL6zmwZCTbOqRg/tSCqogDMubGAGshCRlSmqa8xwPlHHc50wa/9lARgPviH0gSQ8kzMbIQX1Z7/a9gQIyJdVr3KfgNdFpMHFEZQO+hZqFBWRmZsJusNkpKlcWBsabCJo0kFD9q9evZ7gthZYRUyD6YMSIO1zcV/BjiQkBWJ0MRmwCwQgPQEn1Glc9xtetXYPtKcYUlSaee6HAoWE3yXo0rPeBRhlQDcaSYWSWLZuWLJmTK9FAeALkR6gNbPjGjd/l12/eAU2tGuZEKQY+rFOLIRETRuTdHyoxNWE0WLJcOhj9oKOnWOvE6T8hKDOCT+MSnsUnJKekwfImpaQmJ6cYG5UZ0LsHo0QscS86NiUtHRsZBPiNT0xG2kLLBLLGPnqSPTY5FWEyvojTnUcOAv/wW7dRk8Erb9GkQc1qVXMFyfkbFhHJoOaN67//fklBr7gJQ0/Idm1ygj3CAFi58Uf2gKs3b1+31ReYN5mZiMWfxSUAFgvAj0VCitfJIiKYNcSQ1KukeiJSBpo0qEuqh75uR91nr9ptyRpaTcSBVP86I0OcyvWw6UiqR+Fl8bfeNJABWHSjprvxdfPJo4eOdxzAk5Hq27RsyuN5GC/y+fMX7Gj09B8XqauKWQW87/f+LhhUNasIkxt87PT3vv6MADEiURJQvWplgiWB1i0aM9X/fj6UD0Z1oHrTvOWE86HXmeoFpk1SLAVkZlYey8gox892h95xTIHYmmHWbtlh36OLeeVKxOrytRsMVnCYnewdiZ4HXD1XU9Nv8wos0rv3YwgjBmBtxAZKQNa0YU5udOlqON+lA9UbGZXmOcbklvqWL5wdl5B08cp1nO/wBAwuYWh40t8nPjHJZ1dAQPBxMUG/nrZdra2iomPhymiZIzXHwl/qNtPC1oGGRD94RKqHHSBDX7F8OaLhAS2D4GpVzDAKcQQfSvB8tITJF8IkwK9QtqQD1bPKNcnx4uVLBqO4hu8HNavt2BckGYFBJnxRUJRUPVaTWckKqH6McLBfxdXK504ZDel7fdSZWTlwaJVbv8W88BkkiXHeNUF4bEoUXtDMysy6eDUcoQvrgiMZ0r8Xg1EohGeiIf8EMC6jXppwXfQmdKD6V68yeMlYjZPHCCwS3wXYxEhD+bMsV/bq87GNWcXyGLVoziSbjpbw3nAPrLbK2OZVvazuqOCVbdlzPx0sWxI+F6eDv8bGajEgsC5Vn5qezgtoIlosmrI+5u14HrJww9wIAXvi467WYjrUlwiJggfBcsDZi1eoq3GDugTrEDAqw6k+OYU4K8X1RKQMIPjjCZo1qs83AWvKD7QMYrO5aixQp3IlVYWSAJMQlpfKhajRwv0wvG5/+XSa15UOVH8zUh0XQ2jEUgLRxSZIQKB9U7NB4C7TaczGb3CS4/BHezEKTIkEmMbqQPXnQsOIHW5MiLe5Dg0OTSQH8AdnL17kOHw5YkRf1NW6RROCFYBn8YnICRQIxF3YW4Tko8F/qnqc8SMpJdZwfQQToK+nNAudNRO9AqBxA/GeJpmLdiR58oa+SX3Nhn73gcM2/ZyQE+AFSDKURKakqYMuo9Jq96OoFElOeZE79wcRApdSBveVODDRUyyuZrxRp04aX4OBgZLAkMTU1Jjk4V0uIQnA3idDjxRaY2aEgVR9fP36NfHRCPBi6GzV40idkmxIgGqqZM0EMbKCfHeiohV689vFr3r+mcV8wm+pXZSlRU59kZHhlUjWI1GzRLnQY96UqlzyLOYswKSmckEXt+qV4nrlSgAyTKT1NA1Oy3AkRk0e4CMc8OSbIDt++iwRv+F2ACGzuFprphQBUQKARUKKh7wRcEJiMt8lgPMY+ubq0OBCaNikeR6IvpFsC4agAsMXYQS9ck3czGFdEIw/mlfav3LbH+4LZ2m9hjpTyo7cEkmm3NymJuqk6dWrPFsVeT8da2B47OMnYia8RRJcehETA0OlG9wbkCRgyPNcdEBDYIVY5iwoySnw0dh1I1cMxH580KVCJTYy6j6WW/rz56jS8Yxw9AFPBXOBAZAJFYK4+CQcN+8NDKGiCuhRCcBa4JnyTADbdLTyCzjMkHsOhgx3+ITBWJUT5y6m9wckSoM4bW/bujnid8z44OGTxKSU4GOnGD1+/Q4cRmGndKlSlSqUk9v17du0ZPfu+HVNHAhIz80AoHeyk2u27Lh09UblShVwJYAoAeCo5HrEbVT/iZLvVYbBkBEIMh4VQpTB41wkB3v/4IevZBdD4pR95gRHutAgRwkCBJ1MEUvXbEEBr1Z187iERFQf8Qo7Wlmg1shMBDhs+mkPvj1trTHkK6+NAp44cWWHrtDO0T2bBb2sSRE6irR4f3JBEYWhLFgE5d6DR7ds3wcmHp9P4dOrg0dOenh9xyTM790LnC6wijHYNs4bRKlKaXGYQE8Ia4VIAGVCnDXbdm6rfEpAo1DtWvv1/A0+u3CNAqVH/FLX6GH9nT8bZDdsIqmedVFdiFU8DFVqn4RCP3YqfomJAOCfMPJutFwCjKlDTv6Osdh27ss3QEEsSvZaPJdfTPC3n3+1Eg4WtSMsxFUbtwHmE1TB7IIm/huCPRpUZ5U3a3url7zhPG7duXfnXgw8LcxF7RrmrDoIQ4eo0dTE2MS4DEIUICGo3GoVPJtkc6rr1zgvQ9f8aWOpGCmm3OkfvPK7bfTWERy7Th9n3bYVTzlkvAuO24J9vQOPnsQxIbpwD7CapuMR4rD3YAirmY8Z/um0scMJD0C9mnjsvwTDH+BCkvgOIsyLbmfE/yAw1W/fFziob0+5dBpZyAD77qFhETEPH2MH40CcL4JCpMi793GHadHcycDD7AADQ1e1spmW0mKpoWDOiDGRYJRShCMg/Q814T9wMAuBYUPOnMs58paUH3sLTqV3DxscCwv0DvoK5cpi39h16wyPyFw33K/cixTzhxFjBxW4+2f+98ELT1M0VY/tNWXMUPaciIP5B84XjDAc9gouNygkJ8rq9VEn7Tls88u5kzLMwU48qmiqHs/JwioAiHMiIqPET649BnYD8TToLZo11DKyADFcGjtAxqg2UrW5Iqt6PLzr9LFMv25L1yAmYnABfi9fi2DJB7v8lH19NTdLkuOGPMDVcxV6EaGtcJ8jmfQUZdXDn+PSEp4fmZqXd/ZhbME+Bw6fYANhshHtTP9iadiNSGVWqzb+BP8MmnVLvkD2J0lclFWPB0ak6DZzAgAUHY//qi4WSepCDon/P0AXiiWIenEPGQv5k27/kyMGHhMxB+PpOo1KFGL6Iq56PPDAPj1wZR7AfM9V/CG4WBdyGJajGaoMcGF//fc7XSY6KZQTYJowEVg5Delr372LHE/g32pcryDHv9o1Y/yIKmYVcSvNsECnryMG2KPWFnDoBL6oVikHOah02VhbIUWgUpXco73VbFZOiHcfjwrP1fBbyMCRUulK2mLV60qT+eZT9G19vlXytgYUq/5taVo0z19bfa6dSRJsogAAAABJRU5ErkJggg==;" vertex="1" parent="1">
          <mxGeometry x="509.49" y="704" width="57.96" height="23" as="geometry" />
        </mxCell>
        <mxCell id="DwbIfkqpnQ7Z0dvdBgJN-14" value="" style="shape=image;verticalLabelPosition=bottom;labelBackgroundColor=default;verticalAlign=top;aspect=fixed;imageAspect=0;image=data:image/png,iVBORw0KGgoAAAANSUhEUgAAAIAAAAAyCAIAAAAbXkTiAAAAAXNSR0IArs4c6QAAAERlWElmTU0AKgAAAAgAAYdpAAQAAAABAAAAGgAAAAAAA6ABAAMAAAABAAEAAKACAAQAAAABAAAAgKADAAQAAAABAAAAMgAAAAAiiV8DAAAOpklEQVR4Ae1bCVhVxRcXeGgaiysqaprmghsioub2F9fUcCFXzD1TNNL6SypGuSBmWbhQ4pbmHu6koOISZqZh7oiAKO5LCgiICgj94DzOG+67776rvtSP5OPTM2fOnJk7Z+asg1lOTk6RVz+qdyAzMyslLc3GysrSUqN6kBKhabgozVAo+naEHwj8cW1Scsr99Af4oPn+k11bNjXJl5mbhEuhZ2JhYV7FvgLtPj629ltvmuqTzV6pIPVbOXycb+SJM6VL2UZsXaF+lDLlqxugvD+63kcZmdh9tFs3d9Zhnxl6JQC1WxgVc55IXRzrqR2jgu6/IoCjJ6JWBodcv/W3ij2RJwEH6mjUwEGeQsCG7T24asMvbDOEHin4n/CC4MNM8gvApzd3blikfDnpHqhrHz56EoQwAFUrV+QRN2/fSX/wsHrVyowhIDziUHjEH1vD9i2fN8PG2krSKzYL/w04dTaWdn/CmKG1alQTP149/OhRBhmAli5ONOrEmXOwyR37jOwx2GvODyskrL6Y4AlRxcYnjP98dkZmpqRXbGouX7sBRiJKAlPEYWFhAbzGwqJoUUs4ZC5O9bu2b60sWwmfF9K8fSfRy8cfU7d523lQn+5PvQadAXCqDya7fz30/y+/6dW1PXZ51/7fN/6y+9PRg83Ndae5pI31An+fgZ4TIbbpcxbOmORlZmYmO7sm+3H2rb/vyvYZQkbHXsAKZgYsdu/WwcO9W+23qhmifLF4HNtxU2YlJt3DNvlN+tjcXH4L1Czy6MmzROZUv862sH2ff7XAb5JXi6ZO7dyHA2/1eglx94myYd1a3mOHffP98m0791e2rzB6SF/ZiTTV3qi05LupMBfQZTv3HTzwx19Mh/19u4mjRqOxMDfPepz7c/nazfiEKxGHIsm8bN6xB7/fTvPu1LYFj3p5AP95S86cy3VdZvqMK1XS5lkW9uexUxj+eoni+w4eCVi0aq7fxPatmyenpBLP4R69ZJkP6uP26++RuATf/7gOkbPsSS0QiJ2/eLnX0HHMa23Q1w0canKTgbT76eu2hM5fsoYxPuM/HNCrCzdfBgAHpeeQj7ES6P2Ny74zpAF4qZeu3gjethNh6XAP97KlSzIeAG5Sk079GLNozpctXBpREwcxIyNTQboHjxzz/GwGiF1bNZ0/czIzYUCnthjFAI4+wyKAGzfy/d64N4z0n7t43ZYwbr4MwM/bdtIyhvbvYXT3s7NzRntPg58K3xEKXbL+qNh4ETNqwrQvZgfCugCJO6Gw+yBo4eJUtYo9gP0H/6TrKLICrCQAaB4Jtdhs7uy4NGA6YyAD+GTcfLFASmraus2hWAM2qFPblkYXExN/8er1W0RWovhrEvq/TmojAJz9McP6o3dL6N7h430RG0so9ZswPMMHaBUUFJEMgT6KMfqGhbsIaNa4gaj99b0xCf1za24Pj6C5hvbvWayopdF5I4/n5hjop36dt/JB7f/UC0sOzeM5tB/0LTouXbkec/4igITL1+CSSIaITbiLOAfAQB1duHRV7AKsdMaN3lyMpxNBTOGQ/Xn8tGSC59/Mzs6GJqF5cyMvFT+HIk8wVb3aBQSAAsAfeSEYp4AqVbAjYtqfuYtXr96onY6ZiMBrrxVzaZTrvOJHf3+UBGD0BoBjjWpVcDTymOf+g7vJ8IsCTkbFsj6poyJvnJX1GAeHVoudKlasqLjyc3nHHBhOAT189IgI7CuUS7qXsve3w907u4pD9GGnhtrshShpIlNKRah0m2EMQvccIHYwNTBo5HH/fTfpTmJSSup9aOR7qWkpKanWVq/36d6ZKOFv4Ban3k9PTcslwL+JySmN6teBWiMCOBjXb97OHZuSBocPv/BGoAHAPzouHpkZCN6xXu03KukSAzSQgyZ44jh9hFT4FwaAe5s3cWSYgDPRcQTwJvKtirtwaUPIbizjnXatJKMkTce6tQiD/YE3T1EtYZQEIOFiqFmvdg0WAHYtPuFyzepVQez71QI+WTyWBZCZleU26CPGE9DZtSULAAmcGd8FSQhgcmD9EFsx/qMRHqMG9+EmABZAk/yLL/YSDHE+ePCQirEHDx9jggp2ZSD1InlRa0W7slAyicm5c0GWLGnE/5+MHrx45YaRn06Fcg/65gu4hcxBFnCoVYPxUTHx4MZNEwjAtmCyCUEjCQC6mKd5CiA7R2Y4XEDsftsWLr8eiiSegcvWunVuay+k2JCloS59c0p43LbWboNllzTFfz7jg5d+61Cz+ggPd7iSDjXfZDwAODYD3btFx10AgURliWQMw7NCOILUEDDn4i6KAlCyATxeGbCyKiD/q9dvEv2cqRNCVgVO9R4jO7yopSXqSltWzOvRpZ0sQa8u7fduWrps7nTRxiBrgksQMGOiOOTKNe2MQCKeZwNQtnQpkYxhle4yGVsoMacGdfRVGfYdClPN7tO8uFsEJOVdKV6MCW4A+VjMkW0Urip+33yj0trNoSR8piEAO4tfJCmRXZF0oYlvsytWxq5smUG93eYtWc0EE71GIELs2qEN6T1waCwk6HG6mdK64MlgPC7ogZCf0MzJzjl2OvoT39nUBQMzwL0rwUg7wmLxkGcHbK2tiQnMocjNBALIyMgSOYoWhvASHSUSA8YTDwlG0iwppHF6vONqV7Y0CKZ/Nta1pQs+BmZDfCFSUAAGd7CUrQ3Nkqvx83/g5jM+H2ey/22stYu5KxgwcDeBANLS08Vl2ugdHGNpSLKFIg+DcJ2a1akP90PW90CeigcbtY2gPJKXZaMhdWvrTCUzMRVga5N/A/JTeMTZBDYAbqK4ygYOOhOvnUMxpVGkiEp3N5eZbEJRnD0t790OYfSTCiIlYEQAnP1F3hdmSUJgwiafBnjnIlsTCCA2P1Qhvs6OdcUJAOsrJQmB+qZxFSE89DMayXOQhQWgxKR+GU9BCaNCoxAHiMNNIIDI/FwV+DZuWJdFzdOYUAUxT0OAWKR7+FAbshoiPnbqLHc5q3vrcCcxmcsAPFYNgIiSyFgXUfNZBYB3BghoeQUwjAwzYG6mNMsTvQwzeplEC5QieES8GBEQDUA9IVYSaUR4Q8gu117DEENADCJeDcyLEVeIgYpbo4Lx+i2hTFXZvnz/nl24yYCZYi0w67Eu4DIqDDwRZLaygK2t1tahVzTI+sRQBWwAEH6r8ejXbNpBfDIV6+z6cwHD3qetTQGvz8j3yPJiJAr6y9dt5ea0z8bqByzoZfXHlCJwIeGK2HxGWDxfygKIjtOlgFyctAkomh2C0c+aoQs1WiQfUQ2uKATeKhfMKkhUkhir5IYq5xKQEkBigKfv/W7HpgU/g7vErCp4ik3QoMrKlI+F28DIHCGlgScEjJcFoKMQGFLJGo+ZZWkIWcAANNQ5Dii/jJ3kh/hO/wHo4L7d8avAU6Hrbr7WqlalkkimdAMMKQQYN1Tvunp4ctCPuBQBqshXhMVLhwqq2IXMARdPgL9+SxcWMZmoo/A2gPGGAE4BIVdjiAb4o4LvwEOglyjqliT4FPio6UJRAc+TiNKhVnVxiAY53vMJl3H00h88wIM6sQ8FFpgOKBD4c1gZcgx3E++h2L1pR7iYj0QuAedCwefDg4DgbbuI88bt4e/3fpdgnNAxE2ewFIHEgxfU+ps5N4S/jxmv3bidfC81bO8BXlVwyK52rZqWKF68XJlShvTA200aHTmWWxcSzzhzYCA9P2LA7rPmXLBs7fHT58qXK9PbrRNTAsDjqrMx8aguMKXYaxSOvZDANLXyUsXc1MCN6f+hN7dFIOinYPyKGAkMYeJBEuoBErykCQK4p7QdsxcsO346umpl+7tJychoQpAtmzohf0lKAwOXrN6I3y7tW2EInh5JWKHSS8Ve7NGejUslvdRkjx6VLEjRkOPEupjcSlBu2r5n2ZrNYOI32UsMyrbvjvALWEQrfLr3H6fOaosK2DGJtdcUV1Gy4O+EesV45H5R6W7fphmnyJlAFkDuLHCWz8IVP6N2inSmWEEdMdDdc0i/bgPHsACIA+eXoIuBsdTobBUKCbi1+Fd2LiDrCg7l+YtXDAXPmBrPN0GPKzhtzkK83iF/GqlW8UjBGk+eORfmFzkoHMd5i1cBVlNnFpfHGfJuHdqIeMAF3gVJ+kzehFFBFQmFadhhKJBqVewp4wjVB/8SEQoyVnBjgISkDZ1cNav6eMos1J5A6TNuJCc49Qeu3xo2d9Eqlj3c6CnjP2zVrLFIOWCUN5IHYeuCduyJ8P0qEF071wdVqlhepFGGcbfavTeClPZvv6zEq0WRXneyROy/BMNOoC6BXwl/KBwJ5hmbfbt3JgGs2byjX88uhkJxRC193DqdjIq5euMWbjPK8WJiFWvASzU85pk+8SPgoYiAgeqrWN7uiZYHp5Z2H3ZFsvvgo+QFPdE0LxUx7ApVnaBVDkUeV1gb7hmMDarqqK5Idh+jypQqiTvUrWMbWEoy7NhEQ+I0NMuKn7dRl2yUWjgFgKvm9YEHfTY8ZkNbYxSPV2/QYDDIoeFaT6xrh9ZGR4kEKFCT9wExy1qjwikAbAG5XgDgC8WcTxA35UlhmC543hiF2qRKv4OnWBmsfTLkObQvI0Wg0AoAHzll/Ej6VN/ZC9Q8IxT3RYRPnImhYAX+D/B4CKQc4vFY2CGqm3p9MFD0rJgAQGEWAKz9wq998ZGI7wKCcovAT/cTsms/DcSTdHhE+KOXqLxX78rcrt24Bf8VNHhF8MHA9wwRF2YB4JvhU/p+OhoAEpn7ftMlnQxthyz+8F8ngUe6Bf4x3k4jNHm34/9kKRmJyHnC1DlwcJG8w5/HKNjtQi4A7EjfHp3x5B+Aj/88sQTPm2UUoMjOUmOBv0b5Yfl67zHDjCYkEF7Af0U0EzhrinJl9LnGAUY/9V8i+GTUoAp2ZeGQWD5V1Rd/6ILMHf7SCL/IeqlxhBBU4gHH6CH9ENwpf9RzjYSVl/Iy9yKaPR0dh+gdgZhp1/lKAKbdzyfmVvhtwBNvyfMd8EoAz3e/9Wb7B8m+rbeIKOEsAAAAAElFTkSuQmCC;" vertex="1" parent="1">
          <mxGeometry x="508.49" y="796.5" width="58.88" height="23" as="geometry" />
        </mxCell>
        <mxCell id="DwbIfkqpnQ7Z0dvdBgJN-19" style="edgeStyle=orthogonalEdgeStyle;rounded=1;orthogonalLoop=1;jettySize=auto;html=1;shadow=1;sketch=1;curveFitting=1;jiggle=2;" edge="1" parent="1">
          <mxGeometry relative="1" as="geometry">
            <mxPoint x="80.44000000000005" y="616.75" as="targetPoint" />
            <mxPoint x="80" y="660" as="sourcePoint" />
          </mxGeometry>
        </mxCell>
        <mxCell id="DwbIfkqpnQ7Z0dvdBgJN-20" style="edgeStyle=orthogonalEdgeStyle;rounded=0;orthogonalLoop=1;jettySize=auto;html=1;sketch=1;curveFitting=1;jiggle=2;shadow=1;" edge="1" parent="1">
          <mxGeometry relative="1" as="geometry">
            <mxPoint x="210" y="509.94" as="targetPoint" />
            <mxPoint x="180" y="509.44" as="sourcePoint" />
          </mxGeometry>
        </mxCell>
      </root>
    </mxGraphModel>
  </diagram>
</mxfile>
